<?xml version='1.0' encoding='utf-8'?>
<svg xmlns="http://www.w3.org/2000/svg" enable-background="new 14.695 -52.629 3282.292 2932.428" version="1.1" viewBox="14.695 -52.629 3282.292 2932.428">
<g transform="translate(0 2919) scale(.1 -.1)">
		<path d="m10371 28393c4-123 11-196 18-200 6-4 27-10 46-13 19-4 46-11 60-18 14-6 30-12 35-13 6 0 17-4 25-7s65-20 125-37c61-17 119-35 130-40 11-4 38-13 60-19 67-18 178-52 220-66 106-36 429-135 440-136 2 0 20-6 40-15 19-8 38-15 42-15 5-1 13-3 18-5 6-1 19-4 29-6 28-4 31-25 4-31-22-5-127-41-473-162-88-31-279-96-425-145s-290-98-320-109l-55-19-3-191c-3-218-9-207 88-170 68 26 203 75 380 139 74 27 203 74 285 105 83 31 175 66 205 77s64 24 75 29c26 11 165 63 285 105 52 19 111 40 130 48s60 23 90 34 99 37 152 57c102 39 114 39 193 5 11-5 61-21 110-35 144-44 193-65 228-100 40-40 54-83 63-192 4-46 12-83 18-85s83-1 171 2l160 5-2 130c-2 116-5 139-31 212-33 90-36 95-107 167-54 54-143 104-247 137-35 10-70 22-78 26-8 3-19 7-25 9-5 1-48 16-95 32s-164 55-260 87c-96 31-193 66-214 76-22 11-46 19-53 19-11 0-236 77-468 160-27 10-90 31-140 48-49 17-189 65-310 107s-233 81-250 85c-48 13-156 50-209 72-42 17-147 48-162 48-3 0-2-87 2-192z" fill="#65C5DB"/>
		<path d="m10500 26902c-52-67-78-117-105-202-40-125-28-324 26-442 8-17 14-36 14-42s4-11 9-11 13-10 16-21c4-12 35-50 70-85 34-35 60-66 57-69s-45-5-94-5c-71 0-90-3-95-16-3-8-2-88 3-177l9-162 120 1c350 1 1386 15 1558 21l197 6v369l-107-6c-236-12-1088-17-1143-7-80 16-168 63-222 118-73 76-90 114-96 218-4 78-1 98 18 145 13 30 40 75 60 100l37 46-139 134c-77 74-143 136-147 137-3 1-24-21-46-50z" fill="#1B01EB"/>
		<path d="m13362 25704c-80-19-144-70-173-138-18-43-18-142 1-186 74-178 433-203 549-38 24 35 30 55 34 117 5 87-13 150-59 206l-29 34-36-35c-32-32-34-38-21-51 22-22 47-86 47-120 0-73-56-135-130-145l-40-6v373l-52-1c-29-1-70-5-91-10zm63-235v-127l-42 7c-49 8-84 36-104 84-33 75 30 160 119 162h27v-126z" fill="#F75BE5"/>
		<path d="m11143 25535c-92-11-241-41-253-50-5-4-21-11-35-15-40-11-126-54-146-73-11-10-35-29-54-42s-40-29-45-35c-24-24-95-113-95-119 0-3-13-27-29-53-87-142-118-385-71-569 65-256 257-456 499-520 231-60 627-60 866 2 166 43 301 134 415 280 26 32 80 148 101 215 27 84 36 254 19 356-49 307-244 518-556 603-68 19-110 22-314 25-129 2-265 0-302-5zm532-375c70-15 174-71 213-114 48-53 93-147 102-210 21-151-74-329-207-390-177-82-635-90-824-16-126 50-197 139-216 274-33 238 82 395 332 451 112 25 488 28 600 5z" fill="#77B53B"/>
		<path d="m13199 25218c-14-21-19-46-19-103 0-67 3-79 29-112 28-38 26-43-17-38-16 1-18-6-15-54l3-56 290-2 290-1 5 52c3 29 4 54 1 57-2 2-89 4-193 4-212 0-244 7-278 62-23 36-20 85 6 122 13 19 11 24-23 58-20 21-42 38-49 38-6 0-20-12-30-27z" fill="#0B853D"/>
		<path d="m13179 24741c-3-7-4-33-2-57l3-44h205c196 0 206-1 236-22 76-54 68-149-16-199-8-5-105-11-215-14l-200-5-3-58-3-58 213 5c230 6 262 11 314 51 68 52 85 161 39 251-14 27-25 50-25 51s10 3 23 5c12 2 21 6 20 11-2 4-3 27-3 52v45h-290c-238 0-292-2-296-14z" fill="#F5F93B"/>
		<path d="m13223 24238c-27-4-28-7-28-58v-54l-87-3-88-3-3-52-3-53h181v-71l43 3c39 3 42 6 45 36 3 31 5 32 50 32 179 1 339 13 366 29 48 27 68 62 73 135l6 66h-100l-6-41c-3-23-10-47-17-53-10-10-313-26-352-17-13 2-18 16-20 54-3 55-7 58-60 50z" fill="#1BC725"/>
		<path d="m13530 23915c-243-6-261-10-309-73-57-75-57-246 1-327 32-46 42-48 70-17 34 37 35 46 12 78-17 25-21 43-20 97 2 97 24 121 113 125l33 2 6-116c6-111 15-145 51-190 23-28 56-39 121-39 74 0 118 23 151 80 36 61 27 167-22 263-2 4 6 7 17 7 19 0 21 6 21 54 0 35-4 55-12 57-7 2-112 2-233-1zm113-131c25-15 38-52 41-116 2-45-1-56-23-78-32-32-76-33-113-1-25 22-28 31-31 105-5 110-3 115 57 108 27-3 58-11 69-18z" fill="#DD41A1"/>
		<path d="m11810 23908c-643-14-820-22-900-43-143-38-218-80-309-172-150-152-204-305-186-529 14-176 78-320 197-448l75-81-79-78c-77-77-133-168-162-262-13-45-30-187-26-222 21-178 79-317 175-420l41-43-93-5-93-5 1-90c0-49 1-130 2-179l2-89 363 7c1246 22 1533 29 1530 39-2 4-3 86-3 183v177l-307-7c-879-18-898-18-963-6-92 17-162 53-214 111-68 75-90 141-91 269 0 94 3 111 27 160 31 65 72 110 135 150 95 61 151 67 628 75 176 3 423 8 548 11l228 7-3 181-3 181-315-4c-173-2-335-5-360-6-25-2-166-4-315-5-217-1-281 2-328 14-156 43-257 190-257 375 0 179 98 303 279 353 58 16 137 20 671 30 416 7 607 14 613 22 4 6 5 27 2 46-2 19-5 97-5 173v137l-187-2c-104-1-246-4-318-5z" fill="#7B5399"/>
		<path d="m13370 23404c-137-19-207-118-175-249 7-27 21-61 32-75 19-25 18-27-12-29-11-1-15-14-15-56v-55h580l3 58 3 57h-198c-227 0-254 7-286 72-34 70 2 137 85 157 26 6 123 11 216 11 192 0 188-2 176 77l-6 44-177-3c-97-1-198-6-226-9z" fill="#017761"/>
		<path d="m17104 23132c-43-16-99-54-99-68 0-5-5-9-11-9-7 0-8 11-4 30 8 38-6 45-81 35l-56-7 6-96c4-54 8-126 11-162 2-36 10-144 16-241l12-177 61 5c34 3 65 9 69 13s1 100-8 213c-12 153-13 217-5 246 12 44 68 100 103 102 49 2 83-4 98-17 8-8 19-14 22-14 13 0 97 95 97 109 0 36-165 63-231 38z" fill="#2D57EF"/>
		<path d="m16459 23105c-134-19-229-133-240-288-11-141 30-268 109-337 64-56 100-68 202-67 76 0 99 4 145 26 30 15 71 40 90 56l35 30-44 40c-43 40-61 49-61 31 0-16-83-58-128-65-66-10-108 2-152 44-37 36-68 109-55 130 3 6 36 10 73 11 37 0 135 6 217 12l150 12-4 65c-2 44-12 85-32 128-29 64-96 142-123 142-8 0-17 4-20 9s-23 12-43 15c-21 4-45 8-53 10s-38 0-66-4zm106-125c16-8 40-30 54-47 30-40 45-106 25-112-8-3-78-7-155-9l-141-4 11 51c15 62 29 85 69 114 37 26 95 29 137 7z" fill="#2DB7E7"/>
		<path d="m15281 23058c3-16 10-41 15-58 4-16 38-145 73-285 36-140 69-268 74-285 8-29 11-30 68-33l59-3 83 208c45 114 82 213 82 219s6 16 13 22c11 9 16 1 26-41 8-29 17-56 21-62 4-5 15-37 25-70 17-57 37-112 55-145 4-9 11-30 14-48 4-17 12-34 17-37 5-4 9-15 9-25 0-22 20-30 78-28 34 0 45 5 52 22 10 22 29 92 110 411 27 105 54 205 59 223 13 42 4 45-80 35-63-8-64-8-70-43-4-19-9-44-12-55s-21-96-41-188c-20-93-39-174-43-180-7-11-123 333-123 365 0 9-4 20-10 23-5 3-10 16-10 29 0 34-14 41-70 37-37-2-53-8-57-20-2-9-9-25-13-36-9-21-124-319-142-367-5-16-13-28-17-28-3 0-16 46-28 103-60 281-73 343-78 355-3 8-28 12-75 12h-70l6-27z" fill="#DBDF03"/>
		<path d="m14920 23021c-5-2-30-10-55-17-97-29-164-129-177-265-11-115 33-271 94-331 81-81 233-102 349-47 94 45 147 176 137 339-8 145-62 248-155 296-34 18-167 35-193 25zm119-131c44-21 73-76 87-164 26-170-27-271-141-271-93 0-144 63-156 196-7 77 14 183 42 211 18 19 80 42 112 43 13 0 39-7 56-15z" fill="#0FDFC1"/>
		<path d="m14310 22983c-16-6-47-23-67-39-46-36-50-36-46-1l3 27h-130l1-100c0-55 6-206 13-335s15-298 19-375l7-140h130l1 65c1 36-1 111-5 168-3 56-3 102 1 102s24-11 44-25c52-35 166-38 239-5 93 41 125 114 125 284 0 132-11 201-42 264-25 48-82 102-110 102-9 0-20 5-23 10-8 13-121 12-160-2zm116-124c21-10 39-33 56-70 21-47 25-71 27-162 1-127-13-160-82-192-60-28-106-19-154 31-40 42-58 101-58 193 0 54 24 151 43 174 31 39 118 52 168 26z" fill="#B7CD57"/>
		<path d="m20450 22724c-82-4-176-7-209-8l-58-1 6-157c7-175 13-334 21-583 3-91 8-221 10-290 3-69 9-271 15-450 21-677 32-937 45-1005 34-179 138-327 275-392 115-53 133-56 369-61l224-4-6 114c-4 62-7 145-7 184v72l-117-2c-174-2-220 9-272 65-41 44-50 130-66 624-8 259-17 533-20 610-6 159-22 644-30 905-8 245-16 380-23 383-4 1-74-1-157-4z" fill="#611DB9"/>
		<path d="m19547 22718l-163-4 6-212c4-116 8-217 10-223 2-8 64-10 217-7 117 2 218 6 225 8 12 4 12 43 0 380l-2 60h-65c-36 1-138-1-228-2z" fill="#4779F3"/>
		<path d="m13590 22595c-163-24-248-63-341-155-76-74-98-111-134-215-20-58-23-90-27-301l-5-236-67-7c-36-3-90-6-118-6h-53v-309l123-3 122-3 8-500c4-275 10-666 15-870l7-370 210 3c115 2 211 5 213 7 3 3-12 1171-20 1600l-3 140 210 6c116 3 211 7 213 8 1 0 2 71 1 156l-1 155h-428v195c0 178 2 199 21 240 40 85 115 115 284 116 61 0 96 4 102 12 4 7 7 87 5 180l-3 167-142-1c-78-1-164-5-192-9z" fill="#C5ED31"/>
		<path d="m22525 21927c-76-2-117-7-122-15-4-7-15-37-24-67s-27-89-39-130c-25-79-101-333-115-385-5-16-17-59-28-95-25-79-76-250-103-345-11-38-23-77-26-85s-7-19-9-25c-40-142-85-288-96-315l-15-35-22 60c-12 33-25 69-30 80s-21 54-36 95-36 93-45 115c-10 22-30 72-44 110-15 39-34 84-42 102-8 17-14 34-14 38s-12 37-26 73c-15 37-46 119-71 182-24 63-50 131-58 150-7 19-30 80-50 135-21 55-46 119-56 142-10 24-19 50-19 58s-4 15-10 15c-5 0-10 7-10 15s-7 33-17 56l-16 41-221-7c-122-4-224-10-228-13-4-4-1-20 7-37 44-96 185-437 190-456 2-9 15-42 29-73s26-59 26-61c0-3 9-24 19-48 11-23 36-82 57-132 20-49 47-112 59-140 12-27 27-66 34-85 15-38 26-66 64-150 13-30 44-103 67-163 23-59 46-110 51-113s9-12 9-19c0-8 10-38 23-67s32-73 42-98 30-72 45-105 31-71 35-85c7-25 19-54 46-119 14-30 13-39-8-100-12-36-23-66-23-66-1 0-3-11-6-24-2-14-23-81-46-149-69-208-117-249-305-261-57-4-105-10-109-13-10-11 0-366 11-377 8-7 180-1 260 10 160 21 265 69 349 160 80 86 111 149 178 358 27 86 58 179 68 206 10 28 48 140 84 250 74 225 252 749 265 780 4 11 13 36 20 55 20 60 75 225 76 230 3 15 58 188 65 205 10 22 128 370 135 395 5 19 101 309 110 333 7 17 0 18-106 15-63-2-166-4-229-6z" fill="#136F83"/>
		<path d="m19456 21847l-34-3 8-287c4-158 8-316 10-352s6-166 9-290c4-124 9-268 11-320s7-210 11-350c3-140 9-311 13-378l6-124 190 2c230 1 228 1 236 20 4 8 3 103-1 210-5 107-11 305-14 440-4 135-8 283-11 330s-7 171-10 275c-3 105-8 246-10 315-3 69-7 214-11 323l-6 198-182-3c-99-1-196-4-215-6z" fill="#4B8161"/>
		<path d="m18195 21838c-195-30-380-124-514-261l-49-49-81 81c-151 151-320 213-553 203-204-8-348-64-495-189l-57-49-3 102-3 102-200-2c-110-1-204-6-209-11s-4-229 3-532c26-1224 34-1553 38-1558 5-5 416 0 422 6 2 2-3 299-11 661-16 722-14 773 36 871 76 149 246 232 450 220 178-12 313-128 362-311 18-70 27-292 39-992 3-170 8-338 11-373l6-63 141 2c78 0 175 3 216 7l74 5-7 141c-22 499-27 1269-8 1335 18 62 83 150 140 189 93 63 165 85 282 86 122 1 170-11 251-65 97-65 161-173 178-305 9-71 21-389 36-964 3-107 8-242 11-299l6-104 206 7c145 5 209 10 214 19 4 7 6 64 3 127s-10 277-15 475c-20 716-26 815-55 935-83 348-365 563-730 559-60-1-121-3-135-6z" fill="#A58B59"/>
		<path d="m14610 21759c-139-15-267-53-351-104-36-22-69-40-73-40-3 0-42-34-86-76l-79-76 40-37c22-20 87-78 144-129l104-94 33 40c69 84 191 146 313 160 102 11 271 6 338-12 122-31 211-118 238-231 7-32 16-108 20-171l7-114h-114c-367-1-703-24-733-52-6-4-19-8-30-8-12 0-52-16-91-36-223-113-325-274-325-514 0-136 15-211 61-308 99-207 291-316 594-336 76-6 253 4 305 17 114 28 201 70 293 144l67 54v-181h209c129 0 211 4 213 10 2 5 0 121-3 257-4 137-10 392-14 568-16 726-23 799-98 939-88 165-267 278-507 320-120 21-333 25-475 10zm653-1299c7-288-57-404-259-466-63-20-97-23-224-24-136 0-156 2-215 25-124 47-190 143-190 276 0 120 83 237 190 268 14 4 41 12 60 18 27 8 543 28 620 24 12-1 16-23 18-121z" fill="#13C965"/>
		<path d="m11275 21124c-257-19-435-87-598-227-128-110-199-249-228-446-38-254 43-511 211-664 178-163 400-235 720-235 305 1 531 57 702 174 55 38 160 144 168 170 4 10 10 19 14 19 9 0 64 116 84 180 41 125 53 347 27 500-29 174-118 339-253 468l-34 33-104-112c-57-61-104-117-104-124s17-32 39-55c88-95 129-194 141-336 22-252-99-449-315-514-84-25-211-41-215-26-4 13-15 750-15 1014v192l-62-1c-35-1-115-6-178-10zm-16-529c4-120 9-598 6-667 0-16-48-17-143-2-287 44-447 336-324 589 42 86 179 196 271 216 66 16 172 30 177 25 4-3 10-76 13-161z" fill="#EFE5B3"/>
		<path d="m23538 20629c-6-15-3-130 17-639 17-441 17-438 45-497 43-90 147-135 296-126l54 3-4 75-3 75 46-51c52-59 90-80 179-98 104-22 244 7 304 63 30 28 33 27 33-14v-35h95c92 0 95 1 95 23 0 48-20 545-24 597-11 132-62 209-175 263-42 20-61 22-206 22-152 0-163-1-215-26-30-15-73-43-95-63l-40-36 40-32c22-18 50-44 62-57 24-25 25-25 78 22 32 29 86 39 181 36 70-3 95-8 116-24 40-30 57-67 64-134l7-61h-79c-98 0-254-16-308-32-58-16-131-72-152-116-20-40-25-161-9-216l8-28-75 3c-107 6-106 5-117 196-5 87-10 210-12 273-1 63-3 133-4 155s-6 142-10 268l-7 227h-90c-72 0-90-3-95-16zm948-873c2-82-4-139-20-166-23-40-107-74-183-75-67 0-103 12-140 48-23 21-28 35-28 71 0 69 9 88 49 112 39 24 109 34 239 36l82 1 1-27z" fill="#47551F"/>
		<path d="m9685.1 20564c-102-28-169-79-211-159-19-36-23-60-23-125 0-88 17-129 77-193 116-123 401-137 538-27 126 101 140 298 30 459l-19 29-42-39-41-39 30-59c65-124 19-248-105-280-64-16-87-11-80 17 2 12 8 113 12 225l7 202-69-1c-38 0-85-5-104-10zm68-275c-2-106-7-158-14-161-23-9-95 18-129 48-66 58-66 145-1 208 29 28 95 57 139 60 5 1 7-69 5-155z" fill="#8FADDB"/>
		<path d="m23045 20541c-59-17-120-48-144-75-31-34-42-26-37 26l3 46-62-6c-35-4-76-7-93-7h-30l6-202c8-236 26-816 30-968l3-105 90 2 89 2-2 225c-2 196-1 225 12 220 8-4 15-9 15-13 0-16 114-64 162-69 73-7 179 15 230 47 49 31 92 89 115 153 20 54 29 302 15 408-12 92-51 178-108 235-50 51-88 70-168 84-70 13-68 13-126-3zm104-177c44-16 90-83 105-152 7-32 13-105 13-162 1-165-37-239-134-265-71-20-149 1-194 52-52 56-79 264-50 378 19 74 38 105 86 138 37 25 121 30 174 11z" fill="#97C32B"/>
		<path d="m25286 20263c-8-29-24-87-36-128-13-41-35-115-50-165-54-184-87-285-94-285-3 0-19 35-35 78-16 42-37 95-46 117s-27 67-40 100c-12 33-27 71-32 85-6 14-29 72-52 130l-41 105h-95c-95 0-95 0-92-25 1-13 16-54 33-90 35-74 40-86 99-230 51-125 72-174 111-258 16-35 29-67 29-73 0-5 4-17 10-27 9-18 28-61 54-124 16-40 16-38-31-169-30-84-49-101-118-107l-55-4v-171l91 6c115 7 164 33 207 109 17 29 78 199 137 378 58 179 111 339 117 355 58 167 121 356 128 380 4 17 11 38 15 48 7 16-2 17-97 17h-104l-13-52z" fill="#9F03F3"/>
		<path d="m9620.1 19916c-92-24-175-99-194-175-16-65 0-149 41-208 24-35 23-38-17-38h-35v-127l113-6c190-11 866-31 871-26 9 10 13 120 4 125-5 3-85 9-179 12l-169 7 26 30c39 46 54 91 54 165 0 170-92 234-352 244-73 3-146 2-163-3zm319-156c55-27 78-68 73-133-4-57-27-90-82-120-49-27-223-23-299 7-51 20-60 29-78 67-39 89-2 155 112 198 8 3 65 4 125 3 83-2 119-7 149-22z" fill="#61651B"/>
		<path d="m19072 19458c-4-3-7-25-7-49v-42l45-6c25-4 49-4 55-1 5 3 10 28 10 56v49h-48c-27 0-52-3-55-7z" fill="#E5F759"/>
		<path d="m11785 19448c-41-2-219-7-395-13-392-12-482-28-623-112-200-120-311-323-312-565 0-213 74-396 222-549l59-60-79-80c-85-86-148-193-173-294-19-74-17-269 3-340 33-115 115-263 173-308 14-11 25-22 25-26 0-3-42-7-92-8l-93-3-3-179c-1-99 1-183 5-186 5-4 150-4 323 1 173 4 527 13 785 18 259 6 545 14 638 17l167 7v378l-112-5c-147-7-796-21-1008-21-128 0-177 4-220 17-174 54-266 198-258 401 7 178 85 276 272 344 31 11 129 17 406 23 201 5 444 11 540 14s217 6 268 6h92v379l-192-5c-106-2-377-9-603-15-448-11-510-7-600 37-70 35-111 78-151 156-59 117-64 272-10 374 32 61 59 92 116 130 103 69 130 72 820 89 333 8 606 15 608 15s2 82 0 183l-3 182h-260c-143 0-294-1-335-2z" fill="#E911A7"/>
		<path d="m3993.1 19438l-58-4v-177c-1-97-3-222-5-277-16-435-17-645-4-646 42-2 131 0 135 3 2 2 7 121 12 263 9 294 14 316 85 363 57 38 139 38 189 0 68-52 71-68 67-364l-4-264h153l7 254c8 270 4 326-25 392-46 105-174 168-292 143-53-11-117-40-151-68-17-15-18-7-16 176 1 105-2 196-5 202-4 6-13 10-19 9-7-1-38-3-69-5z" fill="#B1CDB1"/>
		<path d="m13441 19429c-3-9-6-63-6-120 0-63-4-104-10-104-5 0-10 5-10 11 0 16-65 39-110 39-48 0-85-17-121-57-47-50-53-71-52-188 0-121 17-178 66-223 48-45 143-50 199-11 33 24 38 24 38-1 0-17 7-20 50-20h50l1 308c1 169 2 324 3 345l2 37h-47c-34 0-49-5-53-16zm-48-284c55-52 56-236 1-291-24-24-80-25-116-2-36 24-53 71-53 149 0 72 19 125 54 149 30 22 88 19 114-5z" fill="#35297D"/>
		<path d="m16493 19438c-37-6-78-56-78-96 0-18-3-49-6-69-5-31-11-37-33-40-23-3-26-8-26-38 0-32 2-35 28-32l27 3v-408l42-6c23-3 46-3 50-1 4 3 8 95 8 204v199l48 3c47 3 47 3 50 41l3 37h-101v45c0 54 25 85 70 85 28 0 30 2 30 40v40l-42-1c-24-1-55-4-70-6z" fill="#7D676F"/>
		<path d="m18808 19407c-7-4-13-37-15-77-3-64-5-70-25-73-19-3-23-10-23-41 0-34 2-37 28-36h27l5-160c3-106 9-168 18-183 18-31 87-62 140-62h43l-3 43c-2 34-7 42-23 43-38 1-65 15-70 37-3 12-4 81-3 152l3 130 45 5c44 5 45 6 45 40v35l-47-1h-48v156h-42c-24 0-48-4-55-8z" fill="#A9D7D1"/>
		<path d="m16695 19316c0-75-6-91-36-91-13 0-24-6-24-12 0-7-3-23-6-35-6-20-3-23 25-23h32l-7-128c-8-158-1-212 32-245 23-23 40-29 120-43 31-6 32-5 36 35 3 34 0 41-14 41-32 0-68 23-75 48-9 39 7 266 20 275 7 4 28 6 47 5 34-3 35-2 38 34 3 37 3 37-40 40l-43 3-3 78-3 77h-99v-59z" fill="#01671F"/>
		<path d="m8063.1 19338c-1-16-2-57-4-93-3-129 1-118-46-122l-43-3-3-52-3-52 43-3 43-3 5-265c5-280 6-284 57-331 44-41 70-51 155-57 93-6 98-3 98 76v52h-39c-21 0-52 5-69 11-50 17-56 52-48 293 4 115 9 213 12 218 3 4 39 8 80 8 82 0 80-3 66 74l-7 39-70 1-70 1-3 118-3 117h-74c-75 0-75 0-77-27z" fill="#EFDBB9"/>
		<path d="m19839 19271c-18-8-35-19-38-25-11-18-26-13-26 10 0 18-5 20-47 17l-48-3v-100c1-55 2-167 3-248l2-148 48 3 47 3 5 176c6 199 9 209 82 231 44 13 71 3 102-40 17-22 20-47 24-194 3-92 7-168 11-169 36-6 74-2 83 8 7 9 9 70 6 186-5 164-6 174-31 214-14 22-40 51-57 63-39 27-123 36-166 16z" fill="#1F4DF5"/>
		<path d="m18091 19264c-124-30-197-171-161-312 20-81 59-136 120-169 73-40 137-36 223 17 40 24 40 33 1 68-28 24-34 26-48 13-55-50-128-43-171 16-26 36-30 49-30 110 0 80 18 128 58 154 41 27 121 16 144-20 5-7 20 2 43 24 19 18 35 36 35 40 0 3-10 11-22 17-92 48-132 57-192 42z" fill="#D7C31F"/>
		<path d="m18424 19262c-20-8-50-24-67-36l-32-22 32-35 31-34 25 22c19 19 35 23 88 23 76 0 101-19 106-80l3-40-100-6c-158-9-201-42-193-149 5-66 25-97 83-124 47-23 132-20 178 4 44 24 48 24 41 5-5-11 1-15 20-16 14-1 36-2 49-2l22-1v381l-28 41c-16 22-45 48-65 58-47 23-146 28-193 11zm191-304c0-48-32-101-65-109-38-10-104 2-126 22-24 22-24 66 0 88 26 24 66 34 134 35l57 1v-37z" fill="#539F27"/>
		<path d="m19050 19265c-4-6-3-119 1-251l7-240 46 3 46 3-1 145c0 80-1 191-2 248l-2 102h-44c-25 0-48-5-51-10z" fill="#B93F5F"/>
		<path d="m19317 19258c-40-19-89-85-103-138-6-22-9-76-6-122 8-133 60-202 169-224 146-29 248 74 248 251 0 117-46 201-129 236-45 19-138 17-179-3zm150-84c49-26 73-152 46-242-13-43-55-77-96-77-34 0-82 37-98 76s-18 141-4 181c22 60 97 91 152 62z" fill="#8353DF"/>
		<path d="m17560 19246c-22-10-49-26-60-34-20-16-20-16 12-48l31-32 30 22c45 32 134 30 167-4 14-13 25-36 25-50s0-28 0-32c0-5-40-11-88-14-118-9-177-34-198-86-19-45-13-105 13-142 47-64 166-91 231-51 39 24 52 25 52 5 0-11 12-15 51-15h51l-7 186c-7 191-16 233-52 266-52 48-186 62-258 29zm212-277c12-32-11-88-46-111-42-28-86-29-128-3-27 16-33 26-33 55s6 39 33 55c42 26 164 29 174 4z" fill="#97F1B7"/>
		<path d="m9605.1 19241c-65-18-101-39-144-84-50-51-66-98-68-197-1-69 2-87 25-133 60-116 225-178 406-152 108 15 185 53 223 108 54 79 73 192 47 285-13 47-70 112-121 138-89 45-268 62-368 35zm295-150c53-23 78-58 82-120 5-64-19-106-79-138-37-20-57-23-138-22-156 1-225 33-249 114-23 76 6 135 84 172 34 16 58 18 150 15 75-2 123-9 150-21z" fill="#53C535"/>
		<path d="m12988 19247c-7-5-13-83-17-249l-5-243h99l-2 246-3 247-30 3c-16 2-35 0-42-4z" fill="#6FB9BD"/>
		<path d="m13723 19236c-51-26-85-63-109-118-27-63-23-188 8-248 66-127 220-164 339-83 40 27 42 37 10 67l-24 22-41-20c-101-52-211-3-211 95v24h320v45c0 63-35 148-75 184-59 52-150 65-217 32zm133-77c31-15 59-66 59-104 0-19-6-20-110-20h-110v26c0 35 36 83 74 100 40 17 51 17 87-2z" fill="#43A9CF"/>
		<path d="m14154 19245c-15-4-42-18-62-32l-35-23 29-33 29-32 32 20c23 14 51 20 90 20 49 0 59-3 77-26 13-17 21-41 21-65v-39h-82c-103 0-153-14-191-51-27-28-29-34-25-91 4-56 8-64 44-98 30-28 52-39 88-44 57-9 120 0 137 20 14 17 40 19 37 2-2-9 13-14 45-16l47-3v186c0 198-4 218-52 262-51 46-154 66-229 43zm181-316c0-58-31-93-87-101-77-10-131 28-117 83 11 43 58 65 137 63l67-2v-43z" fill="#75237D"/>
		<path d="m15303 19245c-15-4-41-18-58-30l-30-21v25c0 24-3 26-44 26-31 0-46-5-50-16-3-9-6-163-6-344v-328l43-4c23-3 45-3 50-1 4 2 7 56 7 119 0 72 4 114 10 114s22-7 35-16 50-18 82-21c79-6 120 16 153 82 33 67 41 217 15 295-34 102-114 148-207 120zm86-110c32-38 40-81 34-178-5-69-8-78-37-104-38-34-67-35-112-5-39 26-58 71-58 142-1 72 15 120 50 149 43 37 90 35 123-4z" fill="#CDCF3F"/>
		<path d="m15759 19244c-17-5-37-16-44-24-17-21-30-19-30 6 0 18-5 20-47 17l-48-3-3-242-2-243h100v154c0 85 4 166 9 179 23 61 92 89 142 60l30-18 35 37 35 37-25 16c-26 17-83 35-106 34-8 0-29-5-46-10z" fill="#312D2F"/>
		<path d="m16055 19244c-88-37-131-107-138-224-6-112 9-159 67-216 50-48 79-59 160-59 92 0 166 75 182 184 20 139-19 253-103 294-54 26-132 36-168 21zm127-101c45-37 67-174 40-238-23-54-50-74-99-72-73 3-108 57-108 168 0 80 20 126 63 148 34 17 80 14 104-6z" fill="#FB6167"/>
		<path d="m17082 19248c-17-29 2-119 40-193 7-14 13-30 13-36 0-5 8-28 19-50 10-21 31-76 45-121 15-46 33-83 39-84 7 0 25-2 41-3 23-1 31 4 42 29 29 65 164 444 164 460 0 3-23 5-51 3l-51-3-53-158c-29-87-56-161-59-164-8-8-16 0-21 23-2 11-26 82-53 159-48 136-51 140-80 143-17 2-32-1-35-5z" fill="#3DEB23"/>
		<path d="m14605 19238c-37-12-67-30-87-53-24-27-26-31-25-98 0-75 50-110 182-127 90-12 116-32 104-80-14-56-114-68-213-24l-44 19-24-25c-15-15-23-31-19-40 19-49 216-83 299-51 79 30 109 82 97 163-12 78-57 106-198 123-34 5-69 14-77 20-24 20-19 67 10 86 30 20 108 21 159 3 35-13 38-12 64 14 26 28 27 28 7 43-10 8-35 19-55 24-36 10-153 12-180 3z" fill="#1B8749"/>
		<path d="m6700.1 19136c-121-32-216-131-251-265-20-73-18-240 3-302 35-104 116-192 201-219 83-27 218-17 302 22 36 17 79 42 95 56l30 25-35 37c-45 46-72 53-102 26-27-26-107-51-162-51-105 1-196 91-196 195v35h248c136 0 253 4 261 9 11 7 13 27 7 98-11 149-80 264-185 310-59 26-164 38-216 24zm175-151c36-26 67-82 76-139l7-41-64-1c-35-1-118-2-184-3l-120-1-3 32c-6 60 54 141 128 172 38 16 125 6 160-19z" fill="#5F5D61"/>
		<path d="m7445.1 19131c-81-21-143-69-177-134-7-14-13-55-13-94 0-132 58-190 211-209 237-29 254-36 254-109 0-45-15-65-69-92-34-17-54-20-135-16-82 3-103 8-145 31-27 15-56 27-65 27-9-1-34-21-55-47-38-44-39-46-20-60 72-55 193-92 294-92 236 0 381 135 340 316-17 79-55 115-145 141-39 11-107 23-152 26s-98 12-117 20c-34 14-37 19-51 88-2 13 45 78 58 78 1 0 28 4 61 10 59 9 146-3 194-29 11-6 25-11 30-11 15 0 92 71 92 86 0 17-68 52-135 70-62 17-194 17-255 0z" fill="#EF3B69"/>
		<path d="m8445.1 19135c-13-8-11-20 14-87 15-43 44-121 62-173 19-52 38-104 43-115 14-31 65-170 101-274 30-87 32-96 19-135-7-22-16-45-19-51-4-5-10-23-14-38-10-41-50-71-104-77l-47-5-3-69-3-69 78 5c46 3 92 12 111 22 36 19 85 88 102 145 6 20 15 45 19 56 5 11 16 40 26 65 9 25 22 56 27 70 5 13 19 51 30 83 11 33 27 71 34 86 8 14 14 33 14 42 0 8 4 19 8 25 5 5 23 47 41 94s37 96 43 110c13 30 14 34 67 172 23 59 41 112 41 118s-31 10-79 10h-79l-12-32c-6-18-16-41-21-50-5-10-9-25-9-33s-4-23-9-33c-6-9-26-66-47-127-20-60-42-123-49-140-8-16-20-52-28-79-8-28-18-51-23-53-8-2-131 348-169 481-8 26-16 50-19 53-10 10-131 13-146 3z" fill="#B305F5"/>
		<path d="m5005.1 19121c-156-47-217-125-251-320-12-71-6-220 10-240 5-6 14-29 21-51 19-60 74-121 137-152 48-23 68-27 152-27 91-1 100 1 165 34 79 40 114 81 147 175 27 74 37 261 20 347-22 106-100 194-202 226-58 19-151 22-199 8zm189-155c52-38 66-82 65-216 0-66-6-139-12-161-23-81-100-129-189-121-61 6-93 27-125 82-21 36-23 52-23 170 0 141 11 181 68 234 48 45 161 51 216 12z" fill="#A72957"/>
		<path d="m5905.1 19128c-53-20-88-39-107-56-27-24-36-18-35 23l1 30h-149v-77c0-43-2-116-4-163-3-47-6-188-8-315l-3-230 73-3c52-2 73 1 77 10 2 7 6 126 8 264 3 237 5 253 27 298 17 37 33 53 64 67 62 28 133 25 184-8 23-15 42-35 42-43 0-9 6-22 13-29 9-9 12-77 10-281l-2-268 32-5c18-3 50-4 72-3l40 4 6 58c3 33 6 160 8 284 2 201 0 231-17 277-44 116-115 166-242 170-41 1-82 0-90-4z" fill="#014749"/>
		<path d="m20853 18908c-2-5-2-63 0-131l3-123 127 3 127 3 3 128 3 127h-130c-71 0-131-3-133-7z" fill="#E17B89"/>
		<path d="m20288 18896c-6-3-9-33-8-66 2-33 4-267 6-520 1-253 5-552 9-665 5-193 7-208 31-260 59-125 123-163 307-181 67-6 129-8 137-5 12 4 15 26 15 104v99l-83 5c-46 3-94 11-106 18-51 27-51 31-61 779-5 383-9 697-9 699-2 6-229 0-238-7z" fill="#AFA5FB"/>
		<path d="m22354 18898c-2-22 2-462 6-548 2-55 7-316 11-580s7-498 8-520l1-40 124-3 123-3-3 408c-4 445-5 440 54 516 77 99 248 114 348 30 40-34 78-101 83-149 5-44 15-368 18-631l3-173h258l-7 248c-16 621-23 690-79 779-57 89-148 157-258 192-103 33-290-3-375-71-68-55-62-75-64 199-1 136-4 271-5 298l-3 50-121 3c-67 1-121-1-122-5z" fill="#BF9369"/>
		<path d="m27936 18786c-12-8-13-39-7-185l7-176h-141v-54c0-29 3-73 6-98l6-45 68 5 67 4 6-143c4-79 9-218 12-309 10-305 17-341 81-431 70-96 175-134 374-134h65l3 35c2 19 1 68-3 108l-7 72h-61c-81 0-137 20-163 58-24 34-29 99-41 510l-6 232h243v43c0 23-3 66-6 95l-7 52h-234l-6 68c-4 37-7 120-7 185v117h-117c-65 0-124-4-132-9z" fill="#2BDB07"/>
		<path d="m9572.1 18531c-77-29-128-88-145-169-15-73-8-109 46-221 3-5-68-6-171-2l-175 7-7-55c-10-79-5-86 57-86 29 0 186-7 348-15s361-17 442-21l146-7 4 64c2 35 2 66 0 69s-109 10-238 17c-259 12-277 17-321 83-35 51-31 107 12 157 49 58 83 64 295 53 96-5 199-10 228-10h52v68c0 66 0 67-27 68-16 0-136 4-268 8-196 5-247 4-278-8z" fill="#E5B12F"/>
		<path d="m15481 18454c-138-20-272-116-351-250-59-102-79-191-79-354 1-157 17-233 76-352 116-237 409-342 671-242 56 21 187 112 187 129 0 10-15 26-107 114l-51 49-49-41c-83-71-174-89-282-56-151 44-230 228-204 473 17 156 62 233 168 289 41 22 64 27 125 27 83 0 144-23 206-78l34-29 75 73c41 40 75 78 75 85 0 20-80 83-148 115-109 52-215 67-346 48z" fill="#B70569"/>
		<path d="m13250 18448c-99-13-179-51-256-120l-40-36 73-74c40-40 75-73 79-73 3 0 22 14 40 31 62 56 103 69 219 69 122 0 163-9 209-47 37-32 56-78 66-163 12-105 21-100-187-100-272 0-371-25-462-116-77-77-91-113-91-239 0-98 3-116 25-159 63-125 168-187 339-201 132-11 275 27 344 92l27 27v-52c0-50 1-51 33-56 17-2 70-4 117-3l85 2 5 220c3 121 5 328 5 460 0 228-1 243-24 300-32 83-123 172-206 202-101 36-277 52-400 36zm384-776c-2-108-19-154-74-203-44-39-100-54-203-54-94 0-137 15-186 66-75 77-52 211 43 252 63 26 92 30 259 31l163 1-2-93z" fill="#9FD551"/>
		<path d="m25930 18444c-218-41-364-177-421-394-25-98-25-313 0-410 39-148 127-284 230-354 113-78 342-114 491-76 129 32 304 143 290 183-4 9-39 45-78 78l-72 61-35-29c-89-76-226-113-331-88-152 36-243 136-256 279l-6 61h815l-7 98c-9 121-11 135-28 198-57 206-241 368-447 393-46 6-87 10-90 10-3-1-27-5-55-10zm200-230c49-23 95-70 124-127 19-38 48-149 40-156-3-3-128-6-279-7l-275-1 4 53c8 123 66 206 175 249 62 25 144 21 211-11z" fill="#47094B"/>
		<path d="m27135 18436c-67-21-94-35-141-72-51-40-59-37-59 21v50h-252l6-222c4-123 9-257 11-298s7-208 10-370c4-162 9-303 11-312 5-16 20-18 130-18h126l-9 268c-4 147-8 337-8 422 0 151 1 156 28 202 15 26 43 59 62 74 37 28 112 54 155 54 38 0 126-28 144-45 8-8 18-15 23-16 15-1 52-55 71-105 19-48 28-194 45-764l3-85 128-3 129-3-7 213c-14 442-25 623-43 696-37 153-156 278-305 318-72 19-191 17-258-5z" fill="#C5DF83"/>
		<path d="m14411 18429c-169-41-304-167-362-340-51-153-41-359 25-531 61-156 169-268 311-320 65-24 90-28 185-28 116 0 184 17 278 71 58 32 147 113 147 132 0 9-38 45-85 81l-85 64-50-47c-69-65-119-86-205-86-197 0-314 166-315 446 0 170 51 268 173 328 89 45 217 30 300-36l38-30 32 37c18 20 49 55 69 78 21 23 37 49 38 57 0 18-57 59-120 88-113 51-255 65-374 36z" fill="#EF03CB"/>
		<path d="m24776 18434c-67-13-180-71-236-121l-49-45-51 52c-49 50-92 72-202 105-58 18-193 8-264-19-31-12-78-37-105-56s-52-35-56-35c-5 0-8 24-8 54v53h-120l-121-1 6-450c3-248 8-500 10-561 2-60 4-131 5-157v-48h251l-7 398c-8 436-7 443 50 519 39 53 103 86 179 91 115 9 202-43 248-147 19-42 21-80 32-451l12-405h250v45c-1 25-4 210-8 412-6 258-5 368 3 373 5 3 8 10 5 15-3 4 10 29 28 55 81 120 266 146 372 54 80-71 91-121 100-459 12-445 13-482 23-492 5-5 59-8 123-6l114 3-1 180c-3 365-21 675-42 742-72 228-292 351-541 302z" fill="#D73B6B"/>
		<path d="m16388 18421c-165-40-280-149-339-323-23-67-28-99-32-227-5-157 5-240 40-351 46-147 168-257 338-304 277-77 540 69 616 340 18 64 27 307 14 394-17 119-22 141-55 211-92 201-349 316-582 260zm222-219c117-46 170-142 178-324 11-250-39-387-162-453-14-7-56-12-99-12-132 2-201 55-243 186-20 60-23 93-23 211 0 244 45 345 173 391 45 16 136 16 176 1z" fill="#37CB91"/>
		<path d="m21600 18414c-44-9-104-30-133-45-59-30-162-135-162-164 0-10-4-20-10-22-16-5-28-124-18-183 15-100 78-181 174-226 44-21 93-32 185-44 328-43 353-53 366-154 10-73-38-132-134-167-49-17-192-17-266 0-67 17-175 65-200 91-18 17-21 15-98-61l-80-79 42-37c53-46 146-94 219-112 50-13 77-17 204-31 57-6 209 14 279 36 114 36 206 109 249 197 33 70 37 190 8 278-47 143-161 209-400 229-104 8-187 23-237 41-55 20-78 65-68 135 12 88 83 129 224 129 84 0 173-21 244-57l50-25 73 73c41 41 73 78 71 83-6 17-121 76-190 97-116 35-280 42-392 18z" fill="#817533"/>
		<path d="m17630 18411c-59-15-106-38-156-77-20-16-40-29-43-29s-6 25-6 55v56l-116-3-116-3 1-594c1-326 4-598 7-602 3-5 57-9 120-9h114v394c0 251 4 405 11 427 26 85 64 127 148 166 44 21 63 25 110 20 103-9 193-75 218-160 13-43 21-272 22-644l1-203h240v815l24 52c46 97 168 157 275 133 63-13 117-46 150-90 49-67 52-90 58-512l6-398h240l-6 423c-6 450-9 482-59 578-32 62-141 169-173 169-8 0-15 3-15 8 0 14-86 34-170 39-147 9-261-29-369-124-37-32-56-43-59-34-7 21-84 91-122 111-93 48-227 63-335 36z" fill="#6F0B2B"/>
		<path d="m19580 18412c-63-22-138-63-164-91-37-40-47-33-46 32v57l-75 3c-41 2-95 0-119-3l-44-7 6-491c4-271 7-650 7-843v-351l113-6c61-3 116-2 120 2 5 5 8 142 7 305 0 163 2 296 5 296s19-13 36-29 61-44 97-62c63-31 73-33 177-34 190 0 294 54 366 191 60 113 73 188 72 419 0 187-2 206-27 295-15 52-37 113-49 134-24 43-93 111-132 132-14 7-31 16-37 21-57 36-242 54-313 30zm167-232c118-59 154-167 145-427-6-168-18-216-68-279-37-47-89-68-178-70-87-2-151 26-198 88-41 56-53 110-60 277-6 156 5 245 41 316 54 107 205 152 318 95z" fill="#8B2565"/>
		<path d="m20869 18218c3-109 6-324 6-478 1-154 4-340 7-412l6-133h237v218c0 120-3 395-7 610l-6 392h-249l6-197z" fill="#93DF49"/>
		<path d="m3711.1 18124c-3-34-6-82-6-105v-44h219l3 101c2 55 1 103-1 105s-50 4-106 4h-102l-7-61z" fill="#2B155F"/>
		<path d="m4114.1 18158c0-10-2-25-4-34-1-8-6-105-9-215-3-109-11-289-17-399-17-333-17-616 1-651 37-75 101-116 211-133 76-13 156-14 163-3 2 4 6 43 7 87l2 79-73 3c-128 6-133 19-120 286 5 111 12 288 15 392 3 105 10 279 16 388 5 109 7 202 4 208-4 5-49 9-101 9-83 0-94-2-95-17z" fill="#3F63C7"/>
		<path d="m7549.1 18112c-2-7-3-62-2-123l3-109 115 4c63 1 117 6 120 10 3 3 4 57 2 119l-3 112h-115c-85 0-116-3-120-13z" fill="#1721AF"/>
		<path d="m7020.1 18096l-90-6v-370c0-203 2-518 5-700l5-330 27-55c48-102 106-144 217-160 39-5 103-7 141-4l70 7v184l-82 5c-85 4-116 16-137 50-14 22-21 383-21 1016v372l-22-2c-13-1-63-4-113-7z" fill="#957311"/>
		<path d="m5843.1 18086c-135-3-249-8-252-11-2-3-7-356-10-785-13-1729-16-2146-21-2510-3-209-7-663-10-1010-7-898-14-1498-21-1816-4-190-2-279 5-283 14-9 904 14 913 22 3 4 9 399 12 877 9 1330 16 1994 22 2060 13 136 45 276 83 360 5 11 19 43 32 70 36 79 77 134 159 215 174 170 394 250 685 250 223 0 407-49 551-148 58-40 143-123 174-171 8-13 22-33 31-45 18-23 71-125 75-141 1-5 14-46 28-90 49-146 51-189 49-795-1-311-2-979-3-1485l-1-920 268 4c147 2 354 7 458 10l190 6-1 1550c-1 1141-4 1579-13 1658-13 113-41 264-67 355-33 112-125 318-171 378-13 17-23 34-23 38 0 3-24 39-54 79-132 178-332 326-571 424-324 133-797 150-1160 42-79-24-253-96-275-114-8-7-34-22-57-34-61-30-227-159-305-235-37-36-70-66-73-66s-5 510-4 1133l2 1132-199 1c-109 0-310-2-446-5z" fill="#1B8197"/>
		<path d="m1315.1 17777c-167-55-254-166-248-317 2-48 19-120 35-149 14-25 86-71 133-85 57-17 63-18 205-34 171-20 225-50 225-124 0-66-23-101-84-129-71-32-129-39-226-25-88 13-157 39-205 76l-31 23-62-60c-70-68-72-79-14-119 104-71 250-105 417-96 179 10 283 59 360 171 33 48 37 63 42 133 10 143-32 225-137 272-44 19-76 25-265 52-101 13-94 12-132 28-47 19-74 67-64 111 13 54 19 63 55 88 51 35 146 46 233 28 39-8 90-24 114-35 23-12 48-21 53-21 13 0 126 106 126 118 0 13-89 61-153 83-89 31-299 37-377 11z" fill="#175103"/>
		<path d="m2398.1 17770c-63-17-124-47-142-69-26-31-39-19-33 29l5 45h-102c-74 0-101-3-101-12 0-7-5-89-10-183-5-93-12-219-15-280-4-60-8-132-10-160-2-27-7-122-10-210-4-88-8-164-8-170-1-6 39-11 100-13l102-3 5 43c3 24 10 171 17 328 12 302 19 345 66 408 48 64 167 99 248 72 58-19 113-74 130-132 12-43 12-89 0-372-8-178-16-330-17-337-2-11 20-15 99-17l102-3 5 33c3 18 7 103 11 188 16 462 19 484 59 546 32 50 100 87 167 92 106 8 183-39 217-131 17-45 19-74 15-222-2-93-8-244-13-334-5-91-7-168-4-172 2-4 48-6 102-6l97 2 6 110c4 61 10 232 14 382 8 283 9 278-34 373-25 56-78 107-150 142-143 70-342 41-470-69l-42-35-58 55c-43 41-72 59-112 71-80 24-175 28-236 11z" fill="#DD0D39"/>
		<path d="m3701.1 17693c-5-57-11-207-32-785l-7-183h101c82 0 101 3 106 16 3 9 6 68 6 132s7 261 15 437 15 348 15 383v62h-198l-6-62z" fill="#452B6D"/>
		<path d="m4847.1 17740c-77-21-105-39-170-103-98-98-147-227-158-417-10-168 33-301 127-401 71-74 167-113 299-121 94-6 175 10 267 52 59 27 142 85 143 100 0 6-25 35-55 65l-55 55-28-18c-77-51-137-72-218-75-116-6-203 37-245 120-27 53-41 168-21 175 8 3 154 4 326 1 171-2 319-3 329-1 34 8 17 218-28 344-24 69-110 158-189 199-61 30-76 34-169 37-69 2-119-2-155-12zm231-171c71-35 127-133 127-221v-33h-480v24c0 82 71 190 150 228 46 23 159 24 203 2z" fill="#E9C387"/>
		<path d="m9381.1 17684c-56-13-156-64-193-99-45-41-101-115-119-159-94-218-78-536 36-724 83-137 287-213 500-188 47 5 108 17 135 26 84 29 234 137 224 163-5 11-129 122-138 122-3 0-24-16-46-35-59-52-134-77-235-78-97-1-148 13-203 55-62 49-113 163-105 234l3 29 140 6c77 4 223 7 325 8s209 4 238 8l53 6-2 96c-2 126-19 203-64 293-84 168-221 249-418 247-51-1-109-5-131-10zm214-189c48-13 103-61 131-112 25-49 51-165 38-174-5-3-126-8-270-11l-262-6 5 61c11 111 93 220 184 241 53 12 132 13 174 1z" fill="#494769"/>
		<path d="m8771.1 17665l-69-5-68-205c-38-113-99-294-135-402-36-109-68-198-72-198-10 0-24 36-72 180-23 69-48 139-55 155-7 17-36 100-65 185-28 85-54 162-57 170s-13 35-22 60l-16 45-114-2c-62-1-116-5-119-8s4-29 15-58c12-28 33-83 48-122 14-38 30-81 36-93 5-13 19-52 30-85 11-34 27-76 35-94 7-17 14-34 14-38s7-22 15-41c29-67 43-100 70-174 25-70 136-367 156-417 8-22 14-23 98-23 61 0 92 4 98 13 7 11 26 61 95 257 16 47 35 99 43 115 16 38 45 112 55 145 9 28 57 158 118 325 22 61 55 148 71 194 17 46 31 94 31 108 0 27 11 26-164 13z" fill="#1D6DCB"/>
		<path d="m7592.1 17638l-38-4 3-577 3-577 104 2c58 1 111 5 118 7 10 4 12 35 9 138-2 73-5 332-5 576l-1 442-77-2c-43-1-95-3-116-5z" fill="#812DEB"/>
		<path d="m25641 16633c-226-4-413-11-416-15-6-8-44-127-75-238-9-33-23-82-31-110-8-27-19-68-25-90s-15-50-20-63-9-32-9-43c0-10-4-27-10-37-10-18-66-207-106-361-14-52-26-97-28-100-3-4-34-110-70-236-36-127-72-250-80-275-17-53-35-116-76-265-33-117-61-215-111-385-17-58-37-127-45-155-7-27-25-90-39-140-14-49-34-121-45-160-11-38-33-117-50-175-34-112-34-112-79-268-17-56-33-107-36-112-9-15-25-12-25 5 0 8-9 34-19 58-11 23-34 80-51 127-18 47-41 104-51 127-11 24-19 46-19 50 0 8-110 291-136 350-8 17-14 34-14 37s-11 30-25 60-25 61-25 68c0 8-4 18-8 24-5 5-23 47-41 94s-39 100-47 118-14 39-14 48c0 8-6 25-14 37-12 19-77 185-181 462-12 33-32 83-43 110-11 28-33 82-47 120-52 138-147 381-162 415-8 19-23 60-33 90-18 56-93 248-110 285-6 11-35 90-66 175-30 85-59 159-63 165-4 5-16 36-25 68-25 80-32 85-113 81-37-2-252-7-476-10l-408-6 7-32c4-17 15-49 25-71 34-76 56-130 90-215 18-47 37-88 42-91s7-8 6-10c-5-6 41-128 62-166 11-19 19-38 19-43 0-6 9-29 19-53 36-81 130-315 137-341 3-14 10-26 15-26s9-6 9-12c0-7 14-47 31-88s51-124 76-185c25-60 51-123 58-140 15-31 90-215 201-485 34-85 70-169 78-185 9-17 16-35 16-41s6-24 14-40c22-45 51-111 90-207 20-48 44-106 55-130 10-23 26-62 36-87s27-65 38-90c35-79 77-182 113-275 20-49 44-108 55-130 23-49 109-254 109-260 0-3 11-28 24-57 14-29 52-120 86-203 34-82 81-197 105-255 129-309 165-401 166-422 1-13-25-106-56-208-55-179-77-253-95-315-10-35-39-132-70-230-66-210-163-358-274-416-98-52-198-71-408-76l-198-6v-31c0-17 9-204 20-416s20-391 20-399c0-11 45-13 278-8 152 3 293 8 312 12 238 41 347 77 512 172 39 24 43 26 138 106 72 60 86 76 151 163 58 79 115 181 174 319 24 56 63 178 222 685 25 80 49 156 53 170s27 86 50 160 45 144 50 155c4 11 20 61 35 110 73 246 97 321 106 330 5 5 9 16 9 24 0 15 109 364 133 426 7 17 12 33 12 37 0 3 3 10 8 14 4 4 7 18 7 31s4 31 9 41c5 9 47 132 92 272s88 269 95 287c8 17 14 35 14 39 0 7 96 314 120 384 20 58 172 536 210 660 23 74 45 144 50 155 4 11 22 65 40 120 17 55 35 109 40 120s17 45 25 75c9 30 37 116 62 190 24 74 48 149 53 165 16 61 131 411 140 427 6 10 10 25 10 33 0 14 68 231 111 350 29 82 89 274 89 285 0 6-32 9-77 8-43 0-262-5-487-10z" fill="#AB35E1"/>
		<path d="m3753.1 16593c-2-7-5-32-7-54l-2-42 48-4c58-6 68 4 72 66l2 46h-54c-35 0-56-5-59-12z" fill="#5941F9"/>
		<path d="m26435 16595c-49-9-128-46-162-76-11-11-32-37-47-59-24-37-26-49-26-145 0-95 2-108 25-140 52-75 126-114 250-131 262-37 301-56 304-150 1-43-21-72-76-100-84-43-284-14-390 56-45 30-36 34-127-52-45-41-45-42-27-62 26-29 169-97 241-115 140-34 301-26 402 20 134 62 196 179 172 322-25 147-114 201-404 243-112 16-154 35-171 75-20 47-17 77 8 109 29 37 76 55 141 55 64 0 183-30 231-58l35-21 60 56c34 30 61 61 61 69 0 20-109 72-198 95-79 20-216 24-302 9z" fill="#B527D1"/>
		<path d="m20375 16583c-305-23-558-109-756-256-76-57-251-224-281-269-9-13-18-23-22-23s-8 66-9 148c-1 81-4 189-8 241l-7 94-226-7c-124-3-324-9-445-13l-219-6 7-166c3-91 13-413 21-716 15-544 31-1088 40-1340 3-71 9-290 15-485 5-195 12-425 15-510s7-245 10-355 8-252 10-315 7-227 10-365c5-231 18-671 30-1060 3-88 10-353 15-590 6-236 12-457 14-490l4-60h338c467 0 581 4 586 18 2 7 1 82-3 167-8 153-39 1115-59 1809-6 194-8 356-5 359s40-28 83-70c93-91 242-201 337-250 71-37 239-103 285-112 14-3 36-8 50-11 209-47 557-54 775-15 277 50 436 118 689 297 34 24 206 197 206 208 0 3 20 34 43 68 24 34 53 80 65 102 38 72 102 215 102 229 0 7 6 26 14 42s20 52 27 79c6 28 14 57 17 65s6 22 7 30c2 8 14 71 28 140 42 210 51 345 51 745 0 633-41 1078-130 1424-19 73-41 145-48 160-8 14-17 41-21 58-3 18-11 35-16 38-5 4-9 17-9 30s-4 25-8 27c-9 3-52 93-52 108 0 5-4 10-10 10-5 0-10 6-10 14 0 39-165 261-275 371-257 256-621 400-1028 404-72 1-133 3-136 4-3 2-53-1-111-5zm162-834c40-8 109-28 153-45 257-102 427-317 524-664 24-88 40-164 50-245 6-47 16-125 22-175 27-211 26-775-1-970-35-250-119-515-199-625-88-121-202-202-355-250-102-33-126-37-309-46-481-25-795 205-933 682-65 224-90 438-109 924-10 237 12 526 52 710 94 432 337 668 733 713 81 9 304 4 372-9z" fill="#9FBFB7"/>
		<path d="m27054 16440c-2-472 0-571 14-617 32-105 98-179 199-226 38-18 66-22 138-22 99 0 166 19 224 64 19 14 36 22 40 19 3-3 3-23 0-43l-6-37 97-6c54-4 101-4 106-1s7 224 6 492l-2 487-95 5c-52 3-97 4-99 2-3-1-6-147-8-324-1-200-7-334-14-355-52-159-277-174-371-25-23 37-23 41-25 376-2 186-4 340-5 342-2 1-47 4-101 6l-97 3-1-140z" fill="#1BD179"/>
		<path d="m23965 16502c0-50-6-46 145-104 50-19 101-39 114-44 37-15 18-25-109-59-170-45-170-45-170-91 0-45-3-43 58-25 26 7 90 26 142 41s122 36 156 46c57 18 63 18 107 3 49-17 79-47 70-70-5-14 1-18 50-28 26-6 27-5 27 39 0 84 5 80-300 214-102 45-204 91-228 101-23 11-47 20-52 20-6 0-10-20-10-43z" fill="#C50D83"/>
		<path d="m28263 16526c-176-69-270-204-284-406-19-283 96-489 315-564 72-25 192-30 262-11 81 22 199 91 199 117 0 5-29 37-65 71l-66 62-33-25c-50-38-100-55-164-55-99 0-176 54-214 149-19 47-22 76-22 186-1 125 0 132 29 190 17 33 47 72 68 90 36 28 45 30 120 30 86 0 150-22 188-66 22-25 35-24 61 6 12 14 25 25 30 25 4 0 23 17 42 37 40 44 39 47-44 103-86 58-163 80-278 80-69-1-110-6-144-19z" fill="#87B379"/>
		<path d="m3452.1 16458c-6-78-15-94-48-86-10 3-19 1-20-3 0-5-2-24-3-41-2-20 1-33 8-34 6-1 20-2 31-3 17-1 20-8 18-51-10-326-9-342 16-368 22-24 77-43 146-49 29-3 30-2 33 45s3 47-28 47c-17 0-41 5-52 11-20 11-20 16-14 170 4 88 9 166 13 174 3 11 21 15 60 15h54l-3 38c-3 37-3 37-53 42l-50 5 3 83 3 82h-108l-6-77z" fill="#15FBF9"/>
		<path d="m29145 16519c-70-13-136-40-188-79-69-52-83-68-120-142-41-81-55-152-55-268 1-170 48-302 143-395 99-97 211-137 354-127 109 8 176 32 249 91l38 30-68 68c-68 69-87 79-96 54-3-8-32-26-63-41-51-24-66-27-125-22-85 7-133 37-177 110-78 128-69 368 16 468 46 54 86 72 157 73 68 1 142-29 185-75l26-26 69 64c57 53 67 68 58 81-18 29-126 97-183 115-55 18-174 29-220 21z" fill="#4B8D59"/>
		<path d="m15950 16490c-103-14-126-18-185-34-261-69-434-171-641-380l-116-117-7 80c-3 45-6 152-6 239v157l-282-6c-156-4-355-9-443-13l-160-6 3-320c1-176 5-439 7-585 3-146 10-557 15-915 6-357 15-918 20-1245s14-908 20-1290c5-382 12-812 15-955 2-143 8-458 11-700s7-441 8-442 208 1 461 5l460 7v60c-1 175-16 967-20 1010-2 28-7 271-10 540-3 270-8 547-10 618-3 70-2 127 2 127 3 0 47-39 97-87 96-93 177-157 238-191 20-12 55-32 77-46 22-15 43-26 46-26 4 0 30-11 59-24 52-24 115-45 211-71 245-66 611-65 902 1 127 29 361 127 451 189 28 19 54 35 58 35 11 0 108 83 174 149 174 174 304 418 384 721 82 307 113 803 87 1376-34 749-104 1069-317 1463-11 19-22 40-26 45-246 356-532 543-952 623-113 21-498 26-631 8zm287-824c132-29 233-71 303-128 91-75 121-104 165-164 186-255 263-629 263-1284 0-421-39-691-140-960-97-261-274-404-573-467-95-19-375-17-465 5-100 23-257 84-275 106-3 4-25 22-50 41-60 47-77 64-137 140-149 190-233 473-263 887-13 186-13 714 0 834 12 111 37 261 50 304 60 200 95 278 164 377 116 165 280 266 506 313 102 21 349 19 452-4z" fill="#D107D5"/>
		<path d="m29867 16475c-118-35-204-123-258-265-34-91-40-264-11-380 59-243 248-372 516-351 75 5 98 12 177 51 50 25 100 55 110 66 18 20 17 21-46 79-36 33-70 59-76 60-6 0-19-9-28-19-56-62-228-84-320-41-80 38-146 141-146 226 0 41-39 38 354 23 233-9 290-9 297 2 8 14 3 128-11 206-10 58-58 160-101 214-96 122-292 178-457 129zm223-169c70-31 129-121 137-205l3-40-50 2c-27 1-128 4-222 8l-173 7v24c0 81 50 166 118 203 48 25 134 26 187 1z" fill="#F139F7"/>
		<path d="m30760 16451c-174-35-265-126-265-265 0-116 27-177 102-231 49-36 114-55 248-74 149-21 181-31 213-66 50-56 33-136-39-173-88-45-305-14-401 59-17 13-35 24-38 24-4 0-28-20-55-46-26-25-56-52-66-60-18-13-18-15 11-39 49-40 155-92 235-114 61-17 96-20 200-17 146 4 151 5 232 46 80 41 131 99 144 163 8 41 5 162-5 195-14 46-67 109-110 131-54 28-136 49-236 61-175 21-235 52-235 121 0 58 15 86 59 109 70 35 213 20 322-35l50-26 50 48c28 26 55 50 60 51 18 7 8 31-21 52-45 32-188 80-255 86-33 2-78 6-100 8s-67-2-100-8z" fill="#133B73"/>
		<path d="m31584 16420c-37-8-88-24-113-36-46-21-140-115-130-130 2-4-1-11-6-14-16-10-10-172 7-215 17-40 66-96 103-115 39-20 177-53 274-65 49-6 104-17 121-24 74-31 100-129 48-178-40-37-62-46-128-53-97-10-240 27-312 81-39 30-48 26-116-43-30-32-46-55-42-65 7-17 135-92 175-103 14-3 34-10 45-15 111-49 369-35 472 25 44 26 101 91 121 138 17 39 15 180-2 222-8 19-13 35-11 35 13 0-45 54-85 79-61 39-124 57-260 75-175 23-222 51-222 131 0 83 63 120 187 111 76-5 194-41 219-66 6-6 13-10 16-10 12 0 120 110 120 123 0 7-10 18-21 26-133 82-315 116-460 86z" fill="#85451B"/>
		<path d="m11335 16419c-534-29-893-149-1195-398-74-61-275-261-275-274 0-5 73-76 163-158 182-167 217-199 337-313l85-80 78 84c197 212 353 297 637 346 87 15 436 20 535 8 167-20 368-82 465-144 175-110 275-306 296-575 7-104 11-409 4-419-6-10-198-17-885-31-318-7-519-16-595-26-509-68-881-271-1109-604-74-109-143-288-171-445-20-115-26-358-10-475 5-41 12-97 16-125 19-153 128-411 229-540 91-117 314-305 360-305 8 0 15-4 15-9 0-13 131-69 262-112 65-21 177-48 250-61 118-20 165-23 418-23 231 0 304 4 385 18 238 44 397 104 570 216 61 39 215 162 262 209 23 23 45 42 48 42s5-93 5-206v-207l443 8c243 4 447 11 452 15 7 5 8 139 4 387-8 471-18 1064-24 1418-3 149-7 497-10 775-6 516-14 690-41 840-18 98-57 236-85 297-10 24-19 46-19 49 0 17-68 137-120 214-200 292-546 487-1003 565-174 29-580 50-777 39zm1142-2776c6-407-14-544-106-726-133-265-396-390-866-411-230-11-408 6-530 51-229 83-352 219-396 437-30 154-7 344 59 476 43 87 161 200 257 247 205 99 266 106 980 122 316 7 580 14 587 15 9 1 13-52 15-211z" fill="#374B8B"/>
		<path d="m3731.1 16308c-7-86-21-393-19-413 2-8-2-27-7-42-8-24-6-29 14-34 13-3 38-4 57-2l34 3 7 115c4 63 12 184 18 268 5 85 7 158 4 163s-27 9-54 9h-48l-6-67z" fill="#3FD7F7"/>
		<path d="m3951.1 16273c-3-51-11-163-16-248-6-85-12-167-15-182-4-28-4-28 50-28 53 0 54 0 59 33 6 41 19 216 17 242-2 49 21 123 47 147 58 55 165 38 185-28 4-16 6-113 2-216l-6-188h50c53 0 60 7 59 65-1 91 17 305 27 325 47 92 186 93 216 1 10-30 8-281-4-376-2-18 4-20 48-20h50l7 55c4 30 8 127 10 215 3 168 0 183-46 233-34 38-73 53-139 55-62 1-128-23-165-60-13-12-19-11-46 15-17 16-49 35-70 42-52 17-138 7-175-19-37-27-43-26-39 2 3 20-2 22-48 25l-51 3-7-93z" fill="#D701D7"/>
		<path d="m4964.1 16323c-67-34-98-71-129-155-18-50-21-74-17-130 8-98 15-123 45-167 60-88 204-118 319-67 76 34 83 46 46 82l-30 31-39-21c-48-26-134-28-174-5-37 22-60 64-60 109v37l177-4 177-3 8 35c11 57-14 160-49 202-36 41-93 70-154 77-57 7-68 5-120-21zm137-73c48-24 74-58 77-101l2-39-115-3c-63-1-121 2-127 6-18 12 1 74 34 106 21 21 60 40 94 45 3 1 19-6 35-14z" fill="#C19951"/>
		<path d="m23988 16152c-66-37-91-137-59-235 24-71 40-82 73-50 24 25 25 27 9 49-10 14-16 44-16 75 0 67 24 90 93 85 15-1 17-12 17-87 0-99 14-133 67-158 108-52 206 27 189 152-3 25-13 53-22 63-13 15-14 18-1 26 8 4 17 26 19 48l3 40-175 2c-124 2-181-1-197-10zm276-103c44-56 16-154-44-154-38 0-55 35-55 112v68h39c31 0 44-6 60-26z" fill="#0D814B"/>
		<path d="m13636 15914c-43-26-55-38-75-76-30-59-13-152 36-194 52-44 81-53 168-54 76 0 90 3 134 29 90 53 112 169 51 273l-27 45-26-26c-25-25-26-27-11-53 9-16 19-43 23-61 11-60-38-122-96-122h-28v260h-57c-41 0-68-6-92-21zm89-154c0-108-7-115-71-72-59 39-57 110 3 147 63 38 68 32 68-75z" fill="#79CB11"/>
		<path d="m23743 15789c-3-5-4-25-4-44l1-35 103-3c56-1 102-5 102-8s-9-22-20-44-20-50-20-63c0-39 27-92 60-120 37-32 77-40 195-41 131-1 184 33 193 122 4 51-19 121-42 123-6 1 0 4 14 8 21 6 26 14 28 47l3 41-198 7c-109 3-246 9-304 13-59 3-108 2-111-3zm444-105c63-13 84-30 90-71 8-49-34-89-100-96-115-11-192 24-192 87 0 74 80 106 202 80z" fill="#29C76D"/>
		<path d="m13388 15539c-16-7-17-60-3-100s42-55 112-61c53-5 58-8 58-29 0-20 5-24 30-24 23 0 31 5 36 25l6 25h173c191 0 186-2 176 63l-4 29-176-4-176-3-3 43c-3 40-5 43-30 40-23-2-27-8-28-33-1-45-11-55-53-55-44 0-58 12-63 55-3 30-25 41-55 29z" fill="#070709"/>
		<path d="m24054 15395c-50-9-100-40-127-81-50-73-9-204 77-248 51-26 153-37 211-21 47 12 102 57 126 102 29 56 11 144-40 190-50 47-160 72-247 58zm171-104c14-6 31-24 39-40 18-39 5-74-39-104-31-21-43-23-102-19-102 9-137 34-138 98 0 42 23 67 72 79 40 10 134 2 168-14z" fill="#1F5FDB"/>
		<path d="m10742 15269c-13-13-8-627 5-665 20-59 49-75 139-80l54-3 3 42c3 41 3 42-30 42-39 0-60 12-66 37-2 10-6 155-8 323l-4 305-43 3c-23 2-46 0-50-4z" fill="#B94575"/>
		<path d="m13390 15247c-3-8-5-27-5-43 0-22 5-29 19-29 11 0 25-2 33-5 21-8 35 7 42 46l7 37-46 4c-31 2-46-1-50-10z" fill="#99359D"/>
		<path d="m13728 15258l-173-3v-80h431l-3 43c-4 49 23 45-255 40z" fill="#993B4F"/>
		<path d="m26030 15154c-66-36-97-66-121-116-23-46-27-67-26-139 0-46 6-101 13-121 19-55 64-109 117-140 83-49 249-32 302 32 11 14 8 21-20 50l-33 34-29-21c-41-29-142-31-180-3-33 25-56 62-60 99l-3 29 155-2c85-1 166-5 179-8 24-6 24-6 19 68-8 112-62 197-150 233-43 18-134 21-163 5zm133-93c34-18 62-66 62-105v-34l-77 7c-42 3-95 6-119 6h-42l10 38c22 82 101 124 166 88z" fill="#83EDC3"/>
		<path d="m26358 15141c3-8 40-65 83-127 42-63 78-119 81-125 2-6-37-69-87-139s-90-128-88-130 32-6 68-10l65-6 24 45c13 25 28 46 32 46 5 0 9 6 9 13 0 17 50 74 56 62 2-5 28-46 57-90l52-80 64-3c34-2 61 1 60 5-2 5-44 68-92 140l-88 131 28 44c15 23 30 45 33 48 15 15 110 160 110 168 0 5-29 10-64 11l-65 1-52-86c-32-52-56-81-62-75-5 5-30 44-56 87l-47 79-63 3c-53 2-63 0-58-12z" fill="#5BBDC9"/>
		<path d="m27003 15131c-55-20-85-42-118-88-40-55-53-108-48-198 10-163 112-266 263-264 63 0 76 4 119 34l49 33-42 40-42 39-23-21c-54-51-145-32-185 39-25 45-35 146-18 195 35 103 130 132 204 63l22-21 35 29c19 16 35 34 35 41 1 17-58 60-108 78-53 18-94 18-143 1z" fill="#0D7F51"/>
		<path d="m27295 14928c0-171 3-203 19-238 35-76 87-114 166-122 64-7 94 0 126 28 23 20 24 20 28 2 5-25 20-33 68-33 31 0 42 4 45 17 2 9 2 133 0 275l-3 259-55-3-55-3-2-180c-3-195-9-220-57-248-45-27-94-22-129 14-17 17-32 40-33 52s-2 31-3 42-3 91-4 178l-1 157h-110v-197z" fill="#8BB9A7"/>
		<path d="m27833 14838c2-147 4-268 5-269s26-4 56-5l54-4-2 171c-2 186 6 226 50 258 29 20 89 21 115 1 10-8 22-15 26-15 11 0 78 67 78 78 0 22-77 52-133 52-57 0-117-16-117-31 0-17-18-9-23 11-4 17-14 20-59 20h-53l3-267z" fill="#9967F1"/>
		<path d="m28365 15094c-73-9-102-21-133-58-63-76-39-189 48-225 19-8 71-22 117-31 101-20 128-36 128-74 0-57-65-82-161-62-30 6-67 18-83 26-15 8-34 15-40 15-17 0-69-56-63-67 17-28 173-82 239-83s131 22 172 60c40 38 41 40 41 108 0 61-3 74-25 97-36 39-64 50-169 71-123 23-156 55-115 109 21 28 132 28 187 1l38-19 30 28c16 16 29 34 29 40 0 16-87 56-140 64-25 3-70 4-100 0z" fill="#A1D7CB"/>
		<path d="m13570 15083c-2-7-5-24-7-38-3-23-8-25-63-30-58-5-59-6-66-40-4-19-5-39-2-43 3-5 26-7 52-4 53 6 76-1 76-23 0-10 12-16 32-18 26-3 32 1 35 20 3 23 5 23 140 24 178 2 199 14 213 117l7 47h-35c-32 0-35-3-41-34-4-19-14-37-22-40-9-3-72-6-140-6h-124v40c0 36-2 40-25 40-14 0-28-6-30-12z" fill="#25CD99"/>
		<path d="m28995 15074c-122-49-178-207-133-372 34-123 158-201 282-177 77 14 120 52 152 132 18 46 20 66 15 152-9 154-60 236-167 266-43 12-116 12-149-1zm156-120c32-30 55-114 50-184-5-75-18-110-50-130-51-34-106-24-154 28-39 41-44 222-7 270 18 25 84 48 115 41 14-3 35-14 46-25z" fill="#E9DB3B"/>
		<path d="m12005 15062c-53-17-116-86-134-148-19-63-21-174-3-230 15-52 79-125 124-144 75-32 196-12 269 42l29 22-31 31-30 31-45-25c-88-51-196-21-218 62-18 61-17 62 52 62 34 0 113 3 175 7l112 6v51c-1 58-25 130-57 170-51 63-156 91-243 63zm145-99c25-23 58-96 48-110-2-5-58-8-124-8h-121l7 33c8 36 38 82 63 97 32 18 99 12 127-12z" fill="#CDCD0B"/>
		<path d="m29404 15067l-37-3 5-262c3-144 8-265 12-269 5-6 68-12 96-9 6 1 9 68 7 185l-2 184 33 36c30 31 40 36 81 36 36 0 52-6 78-29l32-29 4-195c5-219 0-207 81-198l33 3-4 202c-3 191-5 203-28 246-37 66-97 102-170 103-42 0-68-6-95-21-44-27-45-27-45-3 0 21-24 28-81 23z" fill="#A375DF"/>
		<path d="m11108 15058c-42-8-111-80-133-141-29-77-25-214 9-282 42-82 127-127 224-117 68 6 125 48 160 116 24 48 27 66 27 148 0 124-14 177-59 222-52 52-136 72-228 54zm120-94c45-21 67-77 67-173 0-119-22-160-95-176-43-10-84 4-108 36-44 59-47 216-5 270 22 27 70 53 100 54 9 0 28-5 41-11z" fill="#89FD85"/>
		<path d="m11405 15053c1-7 14-51 31-98 28-80 68-196 122-355l24-70 41-3c50-4 46-10 131 223 70 189 72 195 95 248 26 60 23 67-34 67-59 0-55 6-129-215-27-82-53-151-58-152-4-2-14 16-21 39-7 24-31 102-54 173-22 72-42 136-44 143s-22 12-54 12c-33 0-50-4-50-12z" fill="#1D5361"/>
		<path d="m23935 15008c0-50-12-57-79-50l-61 7-1-30c-1-17-2-35-3-42-1-8 24-16 64-23 52-8 64-13 62-27-3-19 5-25 41-32 24-4 27-1 27 21 0 25 1 25 48 19 26-3 94-9 152-13 102-5 107-5 132 18s54 112 42 131c-3 4-21 8-40 8-29 0-34-3-34-24 0-50-47-58-207-35l-82 12 6 29c7 34-11 58-43 58-19 0-24-5-24-27z" fill="#25F5EF"/>
		<path d="m7962.1 14866c-43-22-63-65-72-149-8-81-32-122-70-122-51 0-72 88-39 166 16 37 15 39-7 56-12 10-27 17-33 15-19-6-39-59-44-112-5-65 10-122 46-164 23-28 36-34 80-39 90-8 123 29 140 161 11 85 30 117 68 117 12 0 30-7 38-16 22-21 21-131-1-185-16-41-16-42 8-60 13-10 29-19 35-19 24 0 48 74 52 162 4 79 2 91-21 130-14 24-36 49-49 55-38 19-98 21-131 4z" fill="#772F81"/>
		<path d="m13628 14636c-25-12-48-32-57-50-20-38-21-131-1-157 19-25 19-34 0-34-11 0-15-12-15-46v-47l83 6c45 4 140 7 210 7 138 0 146 3 133 55l-6 25h-151c-146 0-151 1-174 25-34 34-34 93 0 125 23 22 33 23 177 26l153 4 3 40 3 40h-158c-134 0-164-3-200-19z" fill="#FBDD0F"/>
		<path d="m7843.1 14478c-34-5-112-73-128-113-7-17-11-54-8-89 8-113 87-174 225-173 81 0 119 12 171 51 71 53 94 165 51 256-31 66-45 74-77 42l-26-26 22-24c17-18 22-35 22-78 0-66-26-103-85-123l-40-14-6 146c-4 81-7 148-8 150-2 3-81 0-113-5zm60-178c-2-116-7-124-61-101-43 17-58 37-64 84-4 29 0 45 13 62 17 20 86 59 106 60 4 0 7-47 6-105z" fill="#691D17"/>
		<path d="m25517 13793l3-453 92-3 92-3 3 319 3 319 28 36c41 55 99 81 161 74 86-9 145-51 168-118 7-21 14-153 17-339l6-305 78-5c43-3 84-2 92 2 10 6 12 66 8 298-5 307-1 342 41 389 52 58 165 78 233 40 56-31 64-40 84-84 16-35 19-81 23-344 3-167 8-307 13-312 4-4 45-9 91-11l82-3v310c0 330-9 407-50 465-11 16-20 31-20 35 0 19-97 89-153 110-75 28-213 18-292-23-33-16-70-41-83-55l-24-25-41 42c-23 23-64 52-92 66-97 46-293 27-344-34-22-26-31-19-31 24v40h-190l2-452z" fill="#9BBD29"/>
		<path d="m13413 14208c-2-5-4-24-4-43 1-34 2-35 42-38s42-2 46 30c3 18 3 39 1 46-5 13-79 17-85 5z" fill="#23DF85"/>
		<path d="m27192 14186c-173-57-248-190-247-436 0-241 82-394 243-453 118-44 271-36 362 19 101 62 153 163 164 326 26 353-104 545-379 559-66 3-98 0-143-15zm196-162c55-15 103-62 121-117 34-105 29-309-9-382-37-71-137-107-220-80-49 16-111 73-124 113-6 18-15 77-21 132-11 107-3 192 23 242 22 40 74 91 100 96 42 8 92 7 130-4z" fill="#2DE913"/>
		<path d="m13585 14145v-40l138-2c75 0 171-2 212-2l75-1 3 36 3 36-107 6c-59 4-156 7-216 7h-108v-40z" fill="#E54F4B"/>
		<path d="m27835 13725c1-520-12-470 118-470h79l-5 308c-5 295-4 309 16 347 31 61 71 89 145 102 42 7 124-25 161-62 47-47 56-106 63-427 3-153 7-278 7-279 8-6 175-8 179-2 3 5 2 160-2 345l-8 335-30 64c-54 112-123 162-251 181-86 14-160-1-236-47l-55-33 1 32c2 52-5 56-98 56h-84v-450z" fill="#1B3F81"/>
		<path d="m28960 14134c-58-20-134-72-165-113-117-154-131-419-33-610 21-40 112-136 129-136 8 0 14-3 14-7 0-13 82-42 153-54 135-23 281 12 363 87l49 44-59 55-60 54-30-23c-53-39-116-58-193-58-65 1-77 4-126 35-42 27-60 47-80 89-15 29-27 71-29 93l-3 39 150-2c83-1 218-5 301-8l151-6-4 83c-7 162-51 268-142 350-103 93-264 130-386 88zm231-171c54-37 92-99 101-169l6-42-204 6c-112 4-205 7-206 7-7 0-2 59 7 92 23 82 99 137 191 138 48 0 65-5 105-32z" fill="#A78945"/>
		<path d="m29465 14116c0-13 40-122 50-136 3-5 17-39 29-75s26-74 31-85c21-47 143-364 156-404 8-24 18-49 22-55 5-6 16-36 26-66 18-55 18-55-8-133-44-135-53-144-146-149l-45-3-3-82-3-81 53-7c65-8 136 7 188 40 39 25 61 56 88 125s84 226 101 280c10 30 27 78 38 105 11 28 27 73 37 100 61 179 99 281 107 290 5 5 9 18 9 30s7 30 15 41c8 10 15 25 15 33s16 54 36 104c19 49 33 96 30 104-4 11-27 13-102 11l-97-3-18-55c-17-55-126-399-158-498-9-29-21-53-26-52-9 1-28 52-121 315-9 28-23 64-29 80-7 17-27 73-45 125s-36 98-42 101c-16 10-188 10-188 0z" fill="#314753"/>
		<path d="m8085.1 14050c-22-24-22-26-6-44 73-81-11-191-145-191-120 0-189 90-131 169l21 29-24 26c-14 15-30 23-39 20-42-16-67-116-47-190 15-55 66-110 120-129 61-21 166-19 218 4 124 57 176 225 95 306-31 31-33 31-62 0z" fill="#BD6B6D"/>
		<path d="m13755 13845c-89-4-121-9-142-23-75-51-89-159-30-228 17-21 23-35 16-44-43-58-48-71-48-120 0-32 6-62 17-78 15-22 15-27 2-34-8-5-16-24-17-43l-3-35h215c200 0 215 1 218 18 2 10 1 28-2 40-5 21-10 22-155 22s-150 1-176 25c-22 20-25 32-23 69 2 35 9 48 31 65 26 19 43 21 175 22l147 1 3 41 3 42h-145c-85 0-155 5-169 11-41 19-60 86-37 129 16 30 66 40 199 40 69 0 132 4 139 9 8 5 12 22 10 42l-3 34h-55c-30 0-107-2-170-5z" fill="#25A7DD"/>
		<path d="m7893.1 13664c-86-7-135-34-163-89-22-42-19-118 5-158 24-39 24-42 6-42-17 0-23-15-22-55l1-30 140 2c77 1 182 5 233 9l92 6v88l-162-7-163-6-32 27c-26 22-33 36-33 63 0 89 32 102 278 119 75 5 102 10 103 20 1 8 2 20 3 27 5 31-17 38-113 35-53-1-131-5-173-9z" fill="#EFC9E1"/>
		<path d="m7950.1 13218c-117-4-128-7-175-49-50-46-69-118-52-195 12-49 45-109 61-109 17 0 53 40 47 52-4 7-13 24-21 37-7 14-12 46-11 73 3 60 27 87 85 95l41 6v-71c0-101 23-164 70-191 66-37 156-6 186 65 19 45 18 115-2 165-12 29-14 43-6 48 6 4 13 22 14 41l3 35-75 1c-41 0-115-1-165-3zm143-105c16-11 24-29 28-65 6-43 3-53-21-81-33-39-76-43-99-10-16 23-23 157-9 172 11 11 77 1 101-16z" fill="#13B91B"/>
		<path d="m13745 13125l-195-5-3-25c-6-54 5-56 226-52l202 4v44c0 36-3 44-17 42-10-1-106-5-213-8z" fill="#E30923"/>
		<path d="m13433 13114c-5-3-8-24-6-45 3-38 4-39 43-39h40l3 45 3 45h-37c-20 0-40-3-46-6z" fill="#9FD767"/>
		<path d="m13658 12934c-76-10-113-65-113-170 0-60 18-117 44-139 9-7 19-5 34 9 26 22 28 44 7 61-10 8-15 30-15 62 0 60 31 98 80 98 30 0 30 0 30-57 0-101 10-133 52-175 28-28 46-38 71-38 38 0 89 29 112 63 26 40 30 118 10 161-12 25-15 40-8 44 10 6 17 48 14 77-1 12-241 15-318 4zm226-105c25-21 31-33 31-67 0-73-65-112-110-67-16 16-20 33-20 83 0 35 3 67 7 70 15 15 63 5 92-19z" fill="#072FCF"/>
		<path d="m18011 12913c-26-3-58-14-71-22-59-39-77-147-36-219 26-46 26-47 1-47-17 0-20-7-20-40s4-41 24-46c13-3 117-4 232-2l209 3v90l-166 3c-165 2-167 3-193 29-20 19-26 36-26 67 1 84 31 98 225 100l153 1 4 25c9 68 12 66-146 66-78-1-164-4-190-8z" fill="#99EBEF"/>
		<path d="m7975.1 12803c-150-11-162-14-203-56-49-50-58-108-28-177 19-43 20-49 5-59-11-8-14-24-12-51l3-40 60 2c33 1 135 5 228 8l167 7v88l-154-7c-147-6-155-5-190 16-43 27-58 79-35 120 26 46 72 59 233 67l147 7-3 41-3 41h-55c-30 0-102-3-160-7z" fill="#9945C3"/>
		<path d="m18015 12473c-93-32-151-151-116-241 20-54 67-100 126-124 61-25 103-27 186-8 106 24 156 85 157 188 1 121-79 187-233 193-48 2-100-2-120-8zm219-102c60-31 67-103 15-152-34-33-38-34-116-34-88 0-128 16-147 57-24 52-9 102 37 127 36 20 173 21 211 2z" fill="#B57F67"/>
		<path d="m7681.1 12346c-3-5-9-29-12-54l-6-44 113-6c453-26 439-27 439 44v37l-72 6c-40 3-147 8-238 11s-177 8-192 11c-14 3-29 1-32-5z" fill="#279551"/>
		<path d="m7542.1 12339c-4-4-7-27-7-51v-44l52 3 53 3v90l-45 3c-25 2-49 0-53-4z" fill="#4FCF5F"/>
		<path d="m7551.1 12203c-21-12-21-75 0-117 20-40 61-61 124-62 48-2 50-3 50-30 0-26 4-29 30-29 24 0 33 6 40 26l10 26 118-6c112-5 223-9 250-7 8 1 12 17 12 46v45h-107c-60 0-146 3-191 7l-84 6 4 43c3 40 1 43-25 47-31 4-37-2-46-47-6-28-11-31-50-34-52-4-69 9-73 55-2 29-7 37-25 38-12 1-29-2-37-7z" fill="#0BF589"/>
		<path d="m17703 11993c-3-24-2-47 2-51 4-5 27-7 51-5l44 3v90l-46 3-47 3-4-43z" fill="#B59371"/>
		<path d="m17899 12011c-3-14-4-33-2-43 3-17 20-18 236-21l232-2v90h-460l-6-24z" fill="#47730F"/>
		<path d="m17910 11885c-3-5-4-14 0-20 3-5 3-20-1-34-5-23-11-25-72-28l-67-3-3-42-3-43h70c65 0 71-2 71-20 0-23 40-46 64-37 9 4 16 18 16 32v25h139c76 0 152 3 168 6 40 8 71 57 75 119l3 50h-40c-38 0-40-2-43-32-2-20-11-37-23-43-11-6-74-9-151-8-126 3-133 4-131 23 6 44-6 65-37 65-16 0-32-4-35-10z" fill="#6BB923"/>
		<path d="m21382 11738c-4-3-7-53-7-109v-103l-47 25c-56 30-97 28-149-8-52-35-67-87-62-205 5-113 24-165 72-194 37-23 120-25 156-4 32 18 40 18 40 0 0-19 80-22 81-2 3 53-3 593-7 599-6 10-68 11-77 1zm-23-292c19-36 26-134 14-179-13-45-30-62-71-69-50-8-84 26-99 100-10 45-9 67 1 104 15 59 34 81 75 85 41 5 63-6 80-41z" fill="#D9D13B"/>
		<path d="m9074.1 11689c-83-15-113-31-166-86-67-69-83-118-93-279-4-77-11-143-15-147s-34-9-68-12l-62-5-5-85c-3-51-1-88 5-93 5-4 33-7 60-6h63c11-1 13-26 8-128-3-71-8-258-11-418-3-159-8-332-11-384-4-71-2-96 8-102 7-5 59-9 115-9 87 0 104 3 111 18 5 9 12 145 16 302 9 433 16 652 22 688l5 32h109c130 0 130 0 130 114v76h-245l5 123c8 175 21 191 166 204 41 3 75 11 77 18 3 6 4 51 3 101l-1 89-80 1c-44 1-110-4-146-12z" fill="#317B5F"/>
		<path d="m10408 11697l-122-3-6-52c-3-29-5-86-3-127l3-75 115-3c63-1 120 1 126 5 12 9 25 218 15 243-5 12-29 14-128 12z" fill="#A5DD0D"/>
		<path d="m13784 11390c-1-162-2-299-3-305-2-17-14-12-69 28-71 52-128 72-222 78-136 10-272-37-348-119-36-40-81-134-101-213-34-133-39-394-10-549 28-153 52-206 129-280 90-87 251-133 371-105 83 19 159 56 205 100l39 37 1-26c0-14 1-42 2-61l2-35 117-3 116-3 4 73c2 40 5 434 7 876l3 802h-242l-1-295zm-139-444c94-48 130-153 130-382 0-302-69-419-247-419-163 0-234 75-264 280-16 111-7 275 21 364s94 160 161 173c62 12 158 5 199-16z" fill="#89EF05"/>
		<path d="m17912 11618c-4-3-7-24-7-45 0-39 9-45 60-39 8 0 75-2 147-5 120-6 135-9 158-30 20-19 25-33 25-72 0-34-5-54-18-65-29-26-110-38-237-36l-120 2-7-39c-3-21-2-43 2-48 14-15 351-2 380 15 43 24 60 42 77 76 20 43 12 126-17 165-25 34-25 34 0 41 16 4 20 14 20 46v41h-228c-126 0-232-3-235-7z" fill="#6DE9F1"/>
		<path d="m21548 11553c-5-8-7-102-5-221l4-208 41 3 40 3-2 140c-2 132-1 142 21 175 20 29 31 36 64 38 28 2 45-2 54-13 12-14 16-13 42 11 37 36 35 52-7 70-44 18-86 18-132-1-33-14-38-14-45 0-11 18-62 20-75 3z" fill="#9FABB3"/>
		<path d="m21935 11544c-60-36-79-60-96-118-27-93-1-214 57-268 30-27 100-53 145-53 28 0 111 36 137 60 5 4-3 20-16 34l-25 27-41-20c-22-12-55-21-73-21-47 0-97 44-105 92l-6 38 142-6 141-6v54c0 141-154 253-260 187zm133-82c17-13 30-35 33-57l6-35-49 1c-144 3-143 3-143 24 0 10 14 35 31 55 37 42 79 47 122 12z" fill="#695543"/>
		<path d="m22330 11548c-80-17-107-48-71-82 21-20 25-20 52-6 35 18 113 19 135 2 24-18 41-56 34-76-5-16-19-19-102-23-95-4-96-4-129-41-59-64-43-151 37-196 50-28 126-31 161-7 28 20 38 20 38 0 0-12 9-14 43-12l42 3 3 85c2 47 0 127-3 177-7 90-8 94-43 128-50 48-120 65-197 48zm150-262c17-54-32-111-94-111-52 0-81 23-81 64 0 50 22 63 117 65 43 1 53-2 58-18z" fill="#4B1363"/>
		<path d="m22755 11528c-23-10-36-11-38-4-2 6-24 11-49 11-42 0-45-2-39-22 3-13 6-109 6-214v-192l33-5c57-8 57-9 57 163v159l26 20c45 35 110 25 136-22 7-13 14-83 18-172l5-150h80l2 145c2 80 5 154 8 166 5 25 44 44 88 44 68 0 79-29 86-215l6-150h80l3 87c4 137-11 261-37 294-37 47-71 64-128 64-58 0-92-10-118-36-14-14-20-15-34-6-77 57-122 65-191 35z" fill="#E1DF95"/>
		<path d="m18293 11173l-3-43-50-7c-27-3-154-7-281-7l-232-1-5-37c-2-21-1-42 3-46s138-7 299-5l293 3 28 31c29 33 46 98 35 134-5 16-15 20-45 20-39 0-39 0-42-42z" fill="#A17B17"/>
		<path d="m9855.1 11186c-53-11-141-54-180-89-42-38-49-39-48-9 0 12 0 39-1 60l-1 37h-115c-111 0-115-1-119-22-3-13-8-149-11-303s-8-404-11-555-7-285-10-297c-2-13-2-34 2-48 6-25 7-25 119-25 63 0 116 4 120 9 3 5 7 81 10 168 2 87 7 259 10 383 9 306 8 305 74 387 26 34 57 59 87 72 78 35 185 24 243-24 16-14 33-25 38-25 14 0 173 164 173 178 0 16-24 42-38 42-5 0-15 6-21 14-7 8-41 24-76 35-65 21-171 26-245 12z" fill="#31A149"/>
		<path d="m11083 11186c-41-8-165-67-187-89-8-7-24-20-37-28-69-46-148-198-175-339-25-134-13-406 21-460 4-5 12-29 20-52 7-23 21-51 32-62 10-11 18-23 18-27 0-15 65-86 108-117 26-19 83-47 127-63 74-27 91-29 217-29 96 0 141 4 150 13 6 6 22 12 34 12 65 0 298 167 254 182-5 2-39 32-74 67l-65 63-44-36c-78-64-149-89-253-90-100-1-115 4-203 68-69 50-111 135-111 226v60l268 1c147 1 321 0 388-1 157-2 151-9 136 163-26 305-134 461-369 532-50 15-189 18-255 6zm229-214c38-20 96-76 110-107 30-62 42-102 44-146 3-45 2-48-26-56-34-9-442-10-494-1l-33 6 4 56c2 32 14 77 28 104 39 78 87 118 190 161 25 10 147-2 177-17z" fill="#C943BF"/>
		<path d="m12320 11176c-73-22-119-45-165-82-19-16-37-29-41-29-3 0-4 25-2 55l3 55h-238l-6-362c-4-200-8-478-9-618l-2-255h240l6 410 6 410 25 56c30 65 75 112 138 141 35 16 57 19 110 16 99-7 164-50 211-138l24-45v-850h240l3 435c3 462-1 518-48 610-22 42-111 140-128 140-6 0-12 4-12 9 0 4-36 20-80 35-95 31-185 33-275 7z" fill="#6F955B"/>
		<path d="m10281 11166c-5-18-21-822-21-1066v-160l123-3 122-3v188c1 103 3 224 5 268s6 239 10 433l7 352-88 1c-49 1-103 2-121 4-23 2-34-2-37-14z" fill="#CF3901"/>
		<path d="m18065 10966c-124-26-192-155-141-266 42-91 119-130 244-123 121 7 181 44 211 132 21 60 20 92-3 141-35 77-96 112-208 119-37 3-84 2-103-3zm179-102c37-13 61-53 61-103 0-65-90-108-193-91-63 11-91 29-111 73-17 38-17 41 0 68 32 50 60 62 150 63 34 1 75-4 93-10z" fill="#8F7BCD"/>
		<path d="m18164 10537c-30-24-45-70-55-165-7-73-22-97-58-97-52 0-75 68-53 153 14 54 14 55-10 83s-25 28-39 9c-38-52-46-184-14-252 24-55 70-83 133-83 80 0 108 42 123 191 6 67 29 95 68 85 54-13 75-126 36-198l-19-36 21-29c12-15 23-30 25-32 5-8 33 22 49 53 25 47 30 176 10 229-26 69-63 98-132 104-49 4-63 2-85-15z" fill="#55D5B3"/>
		<path d="m18602 9887.6c-3-10-7-351-9-758l-3-740 103-3c56-1 102-1 103 0 0 2 3 158 5 348 3 190 9 366 15 391 25 114 153 183 266 145 58-20 91-47 124-101l24-40 3-377 3-378 22-5c12-2 60-3 107-2l85 2v385c0 423-3 453-57 541-64 103-147 159-253 170-66 7-176-5-215-24-30-14-94-59-98-69-2-5-8-8-13-8s-9 113-9 270v270h-99c-86 0-100-2-104-17z" fill="#D74517"/>
		<path d="m21572 9822.6c-1-5 0-302 3-660l5-653 30-59c35-69 88-118 147-136 24-7 89-15 146-18l102-5v84c0 46-4 90-9 97-5 8-23 13-42 12-77-4-99 0-131 29l-32 29-3 173c-2 96-3 384-3 641v467l-105 3c-58 2-106 0-108-4z" fill="#8D91AF"/>
		<path d="m22654 9798.6c-2-17 3-1519 4-1521 1-1 49-3 107-5l105-3v355c0 195 4 366 8 380 18 54 37 87 64 110 51 45 77 53 151 48 92-7 144-41 183-118l28-55 5-365 6-365 100-9c56-4 103-6 106-3 7 7 5 722-2 771-12 86-70 202-125 253-29 26-111 67-160 81-20 5-71 8-114 6-79-4-151-28-215-74-15-11-31-20-34-20s-6 119-6 265v265h-89c-49 0-96 3-105 6s-16 2-17-2z" fill="#FD4973"/>
		<path d="m22105 9524.6v-160h-120v-170h118l4-92c2-51 5-203 7-338 2-289 7-314 85-398 48-52 107-74 221-83 55-4 104-4 108 0s7 46 5 92l-3 84-73 6c-132 12-132 14-132 409v311l103-3 102-3 2 70c2 39-1 76-6 84-6 9-26 13-57 12-27-1-70 1-96 5l-48 6v148c0 82-3 155-6 164-5 13-25 16-110 16h-104v-160z" fill="#99F317"/>
		<path d="m13271 9648.6c-3-8-6-44-6-79 0-73-1-73 100-76l65-3 3 86 3 86-80 1c-63 1-80-2-85-15z" fill="#930DBB"/>
		<path d="m14408 9624.6c-84-27-120-85-129-207-9-123-8-123-54-123-45 0-54-16-48-86 3-38 4-39 43-39h40v-110c0-60-2-213-5-340l-4-230 73-3c41-2 77 1 82 5 4 4 10 145 14 313s8 316 10 330c2 24 5 25 77 28l76 3 4 42c8 74 1 81-82 81l-73 1 2 74c3 84 14 121 36 121 8 0 15 4 15 9 0 6 24 11 53 13l52 3 3 68 3 68-68-2c-37-1-91-10-120-19z" fill="#A3E3C1"/>
		<path d="m16459 9590.6c-3-7-4-46-2-87l3-74 82-3 81-3 4 59c1 33 1 72-2 86-5 26-8 27-83 30-56 3-80 1-83-8z" fill="#0DD5AF"/>
		<path d="m12871 9557.6c-3-8-6-42-7-76 0-34-4-84-7-111l-7-50h-40l-40-1-3-56c-3-51-1-57 20-62 12-4 33-4 45-1l23 6-5-98c-3-55-6-178-7-274-1-150 1-180 16-209 22-41 60-81 79-81 7 0 17-4 23-9 12-12 106-31 149-31 26 0 35 4 36 18 1 9 3 41 5 70l4 52h-40c-52 0-93 21-108 55-12 27-10 227 4 413l6 82 69-3c43-3 72 0 77 7 5 6 10 35 11 64 3 59 10 55-101 52l-57-1 6 125 5 126-43 1c-24 0-58 2-76 3-21 3-34-1-37-11z" fill="#4F8D39"/>
		<path d="m16059 9490.6c-2-6-5-60-6-121l-3-110-40-3c-48-4-51-9-54-73l-1-49h91l-2-262c-1-227 1-269 16-305 31-76 121-123 237-123h58v140h-45c-90 0-106 22-108 147-2 115 5 365 10 379 4 10 25 14 79 14h74v133l-42-6c-24-3-58-3-77 1l-33 7 1 123 2 123-76-2c-46-1-78-6-81-13z" fill="#C9AF13"/>
		<path d="m19920 9432.6c-22-5-47-10-55-11-39-7-119-65-161-116-95-116-135-263-126-461 6-124 30-216 82-303 113-195 431-270 650-154 73 38 135 88 135 107 0 10-119 120-130 120-5 0-12-5-16-11-3-6-40-27-81-46-62-29-85-34-141-34-108 1-176 30-227 97-31 40-65 139-65 186v30l288-7c301-8 339-9 386-6l28 1-7 113c-11 184-68 318-172 405-28 23-54 42-59 42-4 0-15 6-23 14-47 40-205 58-306 34zm203-187c75-39 127-122 139-221l6-51-234 7c-129 3-238 9-242 11-11 7 1 87 20 134 17 43 79 104 126 124 47 21 140 19 185-4z" fill="#479F59"/>
		<path d="m20813 9413.6c-89-13-219-90-218-130 1-8 28-43 61-78l60-64 32 31c60 58 174 77 299 51 94-20 138-94 138-228v-48l-152 5c-227 7-323-12-410-81-66-52-82-96-82-217 0-85 4-114 21-151 44-96 151-170 274-190 63-10 174-4 194 11 6 4 23 10 39 14 30 7 88 43 94 58 9 21 21 4 24-34l3-43 99-5c54-3 102-2 107 1 15 9 9 753-6 820-26 115-74 180-167 227-34 17-76 34-93 37-136 26-213 29-317 14zm346-619c24-9 26-14 26-77 0-142-43-203-156-218-27-4-58-8-69-10-11-1-46 2-77 7-44 8-66 18-97 47-40 37-41 40-41 104 0 62 2 69 33 99 18 19 51 38 73 45 50 13 274 16 308 3z" fill="#D93DD1"/>
		<path d="m11595 9359.6c-101-28-140-55-182-123-27-44-31-170-6-222 29-60 107-103 208-114 94-10 168-24 190-36 45-24 53-103 15-148-29-34-105-56-159-47-17 3-42 7-56 9-26 3-44 10-115 41-63 28-68 27-114-20-36-37-41-47-29-58 62-61 198-109 308-109 172-1 274 45 328 147 23 45 25 170 2 221-25 58-89 97-182 113-211 36-222 39-245 68-24 30-24 53 1 100 22 44 63 57 155 50 79-6 122-19 153-45 15-13 23-9 70 36 45 44 50 52 39 66-48 58-277 101-381 71z" fill="#B917D7"/>
		<path d="m13338 9357.6c-55-4-63-7-68-26-11-53-46-834-38-849 7-13 141-9 149 3 6 11 16 234 30 682 4 111 3 196-2 195s-37-3-71-5z" fill="#EF8BE5"/>
		<path d="m12194 9331.6c-60-30-107-69-101-86 2-7 23-33 46-57l43-44 23 25c29 31 77 45 157 45 69 0 109-12 136-41 22-24 43-147 27-163-6-6-62-9-135-9-69 1-137-2-152-7-16-5-46-14-68-20-47-15-68-31-106-84-25-33-29-48-29-104 0-93 17-139 71-194 56-56 131-83 223-79 59 2 135 28 167 57 20 18 33 4 24-26-4-13-2-20 7-21 84-7 138-7 142 0 8 12 21 376 20 526-1 124-10 163-52 211-51 60-150 91-294 93-89 1-109-2-149-22zm331-507c0-55-5-73-27-108-29-45-54-57-138-67-36-5-61-2-90 10-61 26-79 50-79 107 0 41 5 54 31 79 39 40 74 48 201 46l102-1v-66z" fill="#7959DB"/>
		<path d="m13780 9319.6c-5-2-35-9-65-15-32-6-68-21-84-35s-33-25-37-25c-5 0-22-24-39-52-22-40-30-66-30-104 0-83 10-113 54-159 36-38 52-46 121-64 44-11 106-23 138-26 109-11 147-37 147-99 0-80-52-116-167-116-37 0-90 7-116 15-52 16-107 45-107 57 0 4-6 8-13 8-17 0-97-84-97-102 1-19 93-75 154-93 177-54 360-26 447 68 41 45 63 125 54 200-3 34-11 70-17 82-30 58-131 106-253 120-87 10-159 32-180 55-26 29-14 87 25 123 30 27 37 28 113 26 73-1 108-9 188-43 12-5 29 5 58 34 44 45 48 55 29 74-15 14-90 51-99 49-3-1-28 5-54 13-43 13-144 18-170 9z" fill="#B9A5C7"/>
		<path d="m14785 9293.6c-30-5-56-14-58-19-2-6-9-10-16-10s-30-15-51-33l-38-33 44-51c24-28 49-52 55-52 6-1 21 10 33 23 43 46 179 59 253 25 39-17 61-65 62-133l1-61-160-6c-88-3-176-11-194-17-56-19-118-87-132-145-30-126 23-238 141-297 86-44 265-25 315 33l20 22 3-37 3-38h80c69 0 79 2 79 18 0 9 3 145 7 302 5 256 4 292-11 338-34 101-106 154-232 172-86 12-127 11-204-1zm279-465c8-7 0-125-10-151-20-52-80-85-154-84-63 0-101 14-137 49-23 21-28 34-28 73 0 93 71 131 230 122 52-3 97-7 99-9z" fill="#676D13"/>
		<path d="m15615 9285.6c-70-14-165-80-211-147-87-127-101-344-32-491 33-71 107-144 179-178 43-20 68-25 137-25 72 0 92 4 143 29 59 29 104 64 104 81 0 5-20 30-44 55-42 42-76 58-76 34 0-5-25-22-55-35-137-63-252 23-268 198-7 74 7 176 30 223 61 122 194 150 293 62 26-24 34-26 48-16 25 19 82 82 82 92 0 4-11 18-23 31-45 45-105 75-169 86-69 11-86 11-138 1z" fill="#31912F"/>
		<path d="m16462 9247.6c-3-10-7-196-9-413l-3-395 76-3 76-3 7 188c3 103 7 289 8 413l3 225-77 3c-67 3-77 1-81-15z" fill="#27618B"/>
		<path d="m16929 9241.6c-136-54-214-206-214-419 0-78 13-157 31-190 5-10 9-23 9-29 0-14 56-86 90-117 50-44 90-57 196-60 57-2 119 1 144 8 63 17 139 97 170 180 23 60 25 79 25 230 0 158-1 168-27 222-30 66-84 122-149 157-36 19-62 24-144 27-64 2-111-1-131-9zm199-142c72-34 101-124 95-293-3-112-21-172-60-200-9-7-23-18-30-25-7-8-40-14-73-16-75-3-120 23-153 90-30 60-40 193-22 281 19 93 54 145 110 163 59 18 95 18 133 0z" fill="#47B1C3"/>
		<path d="m17501 9139.6c-3-55-7-238-9-407l-2-308 40-6c22-3 58-4 80-2l40 3 5 282 5 281 31 38c39 48 90 74 148 76 55 1 86-18 124-74l27-42 5-285 5-286h150l3 275c2 183-1 293-8 329-30 139-140 231-275 231-62 0-153-31-180-60-26-29-35-25-35 18v39l-74-1-74-1-6-100z" fill="#07B51B"/>
		<path d="m16897 8391.6c-7-7-13-104-17-242-4-127-8-236-11-243-2-8-18-1-47 21-24 18-59 39-78 46s-44 18-57 24-69 11-125 11c-103 0-178-17-218-51-8-7-20-13-26-13s-29-18-52-40l-41-40v140l-62 1c-35 0-90 1-123 2l-60 2-6-50c-4-27-12-282-18-565-7-283-14-559-16-613-6-118-12-113 151-116l111-2 2 188c4 362 20 674 37 728 26 78 78 145 125 160 10 4 19 10 19 15 0 13 103 23 153 16 27-4 61-21 95-46l53-40 89 89c97 96 104 97 96 11-3-25-8-148-11-275-3-126-10-363-15-525s-11-331-12-375l-3-80 117-9c64-5 123-6 131-3 11 4 16 44 21 194 4 103 11 193 14 199 19 33 191 211 198 205 5-3 27-41 48-84 21-44 61-115 88-160 26-44 48-83 48-87s23-47 51-95c28-49 64-115 80-147l29-58 83-1c45 0 115-4 155-8 90-9 91-3 22 108-27 44-50 84-50 88 0 5-20 39-45 76-25 38-45 70-45 72 0 3-79 142-110 195-18 30-124 215-134 235-6 11-17 28-24 37-16 20-7 42 35 79 15 14 53 54 83 88 64 73 168 187 257 280 35 36 63 72 63 79 0 9-38 12-156 12-111 0-159-4-167-12-7-7-63-71-126-143-62-71-141-161-174-199-83-93-128-144-162-183-16-18-32-33-37-33-6 0-7 62-4 148 3 81 8 233 11 337 2 105 8 292 11 416 4 130 3 228-2 231s-59 8-120 12c-85 5-114 3-122-7z" fill="#C13337"/>
		<path d="m18995 8184.7c-227-5-249-7-294-27-86-40-148-126-160-223-8-67 20-169 59-214 29-33 24-48-13-44-27 3-27 3-30-71-2-41 1-78 5-82 6-6 741-15 801-10 8 1 12 20 11 64-1 106 24 97-284 100-222 3-275 6-300 19-103 55-134 188-62 272 41 47 102 56 385 56h252v73c0 39-4 77-8 82-8 11-30 12-362 5z" fill="#B3F3BD"/>
		<path d="m12844 8015.7c-3-18 6-66 28-151 13-52 25-104 25-115 1-11 5-24 9-30 4-5 10-30 14-55 4-24 11-51 15-60 8-15 30-99 36-135 1-11 14-60 27-110 14-49 27-101 30-115 20-87 38-161 69-275 20-71 43-166 53-210 9-44 20-83 23-87 4-3 56-8 116-10l109-3 13 30c7 17 22 57 34 90 36 101 61 169 75 200 7 17 20 53 29 80 15 44 53 144 77 200 5 11 20 52 34 90 14 39 29 79 34 90s17 44 26 73c22 69 29 68 50-8 0-3 11-36 23-75 12-38 30-101 41-140 11-38 29-102 40-142 12-39 21-80 21-90s4-23 8-28c5-6 19-50 31-100 13-49 31-115 41-145s21-74 25-98 12-45 18-47c7-2 60-6 118-9 96-6 107-5 112 11 3 10 40 117 82 238s92 265 110 320c19 55 52 152 75 215s52 147 65 185c13 39 44 130 70 203 26 74 43 138 39 142-5 5-65 10-134 11l-125 2-14-28c-7-16-29-78-47-139-19-61-38-120-43-131s-17-47-26-80c-23-78-51-169-85-275-16-47-40-124-55-172-14-49-30-88-34-88s-13 28-20 63c-14 67-29 121-42 152-5 11-18 56-29 100-12 44-25 89-30 100s-13 40-19 65c-20 93-32 136-41 155-5 11-23 78-41 149-17 71-33 136-36 143-4 11-28 13-106 11l-100-3-22-55c-13-30-33-82-45-115-39-108-52-144-150-400-10-27-35-95-55-150-47-128-67-175-75-175-4 0-15 37-25 83-9 45-30 136-45 202-35 146-88 387-106 475-23 118-32 152-40 160-11 9-253 20-255 11z" fill="#F3E945"/>
		<path d="m15075 7928.7c-254-55-398-261-419-599-13-205 6-355 57-463 30-65 40-79 101-139 112-112 205-147 392-148 75 0 136 5 150 11 54 26 98 44 107 44 6 0 27 15 48 33 158 136 210 252 224 507 7 131 7 164-5 280-14 139-55 236-135 323-123 133-327 193-520 151zm225-239c61-19 116-70 147-139 21-47 23-67 25-241 2-192-4-241-46-347-14-37-77-104-114-123-51-25-144-30-211-11-131 38-186 155-186 396 0 332 88 477 290 479 25 1 67-6 95-14z" fill="#450FF3"/>
		<path d="m18828 7393.7c-112-19-194-79-241-179-22-48-26-69-26-161-1-98 1-109 29-164 20-39 46-70 75-92 25-18 50-38 57-43 7-6 18-10 26-10 7 0 17-3 21-7 7-7 8-8 76-22 72-16 225-13 287 5 67 19 144 64 179 102 14 15 37 52 50 82 21 44 25 69 25 137-1 196-94 313-279 352-61 13-203 13-279 0zm232-164c115-11 178-74 179-181 1-143-169-218-375-164-101 26-133 52-155 127-26 89 0 155 78 195 34 18 145 37 188 32 14-2 52-6 85-9z" fill="#83A103"/>
		<path d="m18242 6606.7c-14-3-17-17-17-88 0-97-1-96 110-92l65 3 3 79c2 44-1 83-7 89-9 9-120 15-154 9z" fill="#BDE7B3"/>
		<path d="m18573 6598.7c-5-4-8-43-8-86v-78h28c15 0 197-3 406-7 285-4 380-3 386 6 6 11 2 151-5 159-6 6-801 13-807 6z" fill="#A9CD0F"/>
		<path d="m15664 6346.7l-36-3-6-127c-4-70-7-197-7-282v-155h105l10 195c10 205 18 235 66 260 30 16 81 11 104-10 21-19 21-19 46 3 14 12 33 34 43 48l17 27-44 21c-60 29-131 28-182-4-50-31-54-31-51-1 3 27-9 33-65 28z" fill="#5FD191"/>
		<path d="m19060 6332.7c-96-33-128-95-152-286-20-161-37-195-96-200-32-3-43 2-72 31-22 22-36 46-37 64-5 85 12 193 38 244 12 24 10 28-34 72-26 26-52 47-58 47-10 0-37-50-65-120-10-24-14-77-14-165 0-121 2-134 28-187 30-62 91-121 144-139 19-6 65-9 103-7 129 7 173 69 200 288 10 75 23 146 29 158 27 51 95 57 139 12 61-60 64-212 6-339-13-29-24-57-24-62 0-11 90-99 101-99 4 0 23 25 43 56 44 71 66 164 67 286 1 80-3 104-28 168-38 101-98 163-172 179-63 13-106 13-146-1z" fill="#070D2D"/>
		<path d="m16115 6303.7c-51-29-97-84-114-138-57-173-6-345 117-401 72-33 197-23 260 22 34 24 34 48 2 78l-25 24-39-22c-57-33-147-27-185 11-23 22-46 75-46 103v26l175-6 175-6 6 26c15 61-22 191-69 243-55 59-186 80-257 40zm168-96c30-28 54-81 50-111l-3-27-109-3c-66-2-113 1-121 8-14 12-7 58 14 98 30 56 126 76 169 35z" fill="#41A903"/>
		<path d="m16650 6295.7c-65-23-106-60-140-126-57-113-43-287 30-373 36-42 112-78 171-80 100-4 202 74 145 110-12 7-21 18-21 25 0 19-18 16-52-9-41-28-108-30-138-3-46 42-63 92-58 179 4 77 17 114 53 152 45 47 127 43 163-8 19-26 30-23 69 20l34 37-33 28c-63 54-151 73-223 48z" fill="#B9B729"/>
		<path d="m17082 6271.7c-50-16-101-58-131-110-39-67-54-203-31-287 13-50 67-120 117-153 66-42 185-35 264 16 39 25 42 44 14 75-24 26-38 27-65 8-88-60-221-2-228 100l-2 39 110-4c61-3 139-5 175-5l65-1 3 50c11 178-139 319-291 272zm137-116c22-21 46-81 46-116 0-14-6-16-32-11-18 3-71 6-117 8-56 1-85 6-88 15-9 23 18 82 50 109 26 22 38 25 75 21 25-3 53-14 66-26z" fill="#6FB5F5"/>
		<path d="m17498 6229.7c-55-28-76-59-88-132-8-50 14-104 54-131 23-16 89-37 146-48 96-18 105-24 105-75 0-30-5-42-25-55-37-24-151-14-209 19l-43 24-26-27c-15-15-27-34-27-42s28-30 63-49c59-32 67-34 167-34 95 0 108 2 142 25 47 32 73 88 70 152-3 94-53 136-187 159-85 14-125 39-125 78 0 71 102 88 203 34 28-15 30-14 62 17 18 18 31 38 29 45-11 27-141 65-223 65-20 0-60-11-88-25z" fill="#0D25EB"/>
		<path d="m17932 6199.7c-48-33-67-72-67-135 0-58 18-100 52-122 20-13 90-33 183-53 47-10 67-30 68-69 2-56-21-71-101-70-54 0-78 6-119 28-49 27-51 27-77 11-45-30-49-49-16-73 86-64 256-87 335-45 67 35 95 84 95 167 0 87-70 139-220 161-66 10-90 29-90 70 0 54 22 68 99 62 37-2 80-12 97-23 31-18 32-18 62 7 36 28 39 40 14 62-33 30-102 47-191 47-76 0-91-3-124-25z" fill="#C31901"/>
		<path d="m19038 5608.7c-70-30-106-114-123-281-13-137-31-180-76-189-48-9-81 2-101 33-26 40-25 197 2 276l20 59-47 44c-26 24-51 44-56 44-15 0-51-75-67-141-28-122-16-278 29-366 25-47 89-100 138-114 50-13 146-6 186 15 66 34 87 83 112 272 19 140 26 164 59 192 18 14 65 16 91 2 78-42 90-237 22-369l-29-57 44-44c23-25 43-48 43-52 0-5 6-8 13-8 26 0 71 79 103 180 16 53 18 224 3 290-25 111-93 199-169 220-50 14-159 11-197-6z" fill="#777525"/>
		<path d="m18850 4884.7c-105-26-195-97-239-189-28-59-31-75-30-156 0-80 4-96 32-150 74-144 206-215 397-215 248 1 402 124 422 337 9 99-30 228-99 326-25 35-43 34-76-5-55-65-55-63-24-112 89-140 54-313-74-358-27-10-61-18-76-18h-28v198c0 110-3 233-6 275l-7 77-81-1c-45-1-94-4-111-9zm85-351l1-190-48 7c-101 14-154 69-161 165-7 93 26 155 103 190 22 10 54 19 72 19h31l2-191z" fill="#69DB37"/>
		<path d="m18260 4146.7c-9-25-5-159 7-193 32-94 91-129 240-138l103-6 3-47 3-48h58c64 0 71 6 71 61v29h680v180l-342 2-343 3-5 85-5 85-60-2-60-1-1-74c0-40-1-79-2-85-2-16-116-18-160-2-27 9-32 17-41 62-6 29-12 63-13 76-3 23-7 24-65 25-44 1-64-3-68-12z" fill="#BB938D"/>
		<path d="m18874 3664.7c-99-17-198-90-240-179-32-68-46-177-31-249 14-69 60-158 98-191 63-55 207-101 314-101 68 0 170 14 205 29 11 5 31 13 45 19 46 18 117 91 146 149 23 46 29 75 32 140 12 253-144 394-433 391-49 0-111-4-136-8zm326-201c82-41 117-138 80-225-17-41-27-52-80-84-37-23-49-25-170-24-175 0-231 25-270 117-41 97 3 194 105 230 34 12 75 16 165 14 105-2 126-6 170-28z" fill="#97AB3B"/>
		<path d="m18652 2939.7c-54-75-65-223-23-311 13-27 31-56 40-63 24-20 19-29-16-33l-33-3-3-65c-6-117-54-105 423-107l415-2v89c0 65-3 90-12 90h-266c-170 0-266 3-293 11-109 33-163 180-98 263 21 26 21 27 3 49-40 47-102 107-110 107-5 0-17-12-27-25z" fill="#29DF95"/>
		<path d="m18964 2250.7c-2-2-31-6-64-8-87-5-177-53-236-125-69-85-63-281 11-376 26-33 26-35-12-39l-33-3-3-74c-2-41 1-78 5-82s270-10 591-14l582-6v181h-205c-113 0-205 2-205 4 0 3 14 27 30 53 40 65 53 145 38 237-6 39-14 73-18 76s-14 19-23 36c-26 50-102 99-182 117-66 16-266 32-276 23zm263-207c57-28 87-80 89-152 2-48-25-127-44-127-6 0-18-7-28-16-75-68-371-47-441 32-24 28-41 101-34 149 16 103 114 147 316 141 77-2 104-7 142-27z" fill="#A59FB9"/>
</g>
</svg>